<?xml version="1.0" standalone="no"?>
<!DOCTYPE svg PUBLIC "-//W3C//DTD SVG 1.1//EN" "http://www.w3.org/Graphics/SVG/1.1/DTD/svg11.dtd" >
<svg xmlns="http://www.w3.org/2000/svg">
<metadata>
Created by FontForge 20120731 at Thu Jul 27 14:08:30 2017
 By admin
</metadata>
<defs>
<font id="iconfont" horiz-adv-x="1024" >
  <font-face 
    font-family="iconfont"
    font-weight="500"
    font-stretch="normal"
    units-per-em="1024"
    panose-1="2 0 6 3 0 0 0 0 0 0"
    ascent="896"
    descent="-128"
    x-height="792"
    bbox="-0.130435 -128.057 1024.13 896"
    underline-thickness="0"
    underline-position="0"
    unicode-range="U+0078-E840"
  />
<missing-glyph 
 />
    <glyph glyph-name=".notdef" 
 />
    <glyph glyph-name=".notdef" 
 />
    <glyph glyph-name=".null" horiz-adv-x="0" 
 />
    <glyph glyph-name="nonmarkingreturn" horiz-adv-x="341" 
 />
    <glyph glyph-name="x" unicode="x" horiz-adv-x="1001" 
d="M281 543q-27 -1 -53 -1h-83q-18 0 -36.5 -6t-32.5 -18.5t-23 -32t-9 -45.5v-76h912v41q0 16 -0.5 30t-0.5 18q0 13 -5 29t-17 29.5t-31.5 22.5t-49.5 9h-133v-97h-438v97zM955 310v-52q0 -23 0.5 -52t0.5 -58t-10.5 -47.5t-26 -30t-33 -16t-31.5 -4.5q-14 -1 -29.5 -0.5
t-29.5 0.5h-32l-45 128h-439l-44 -128h-29h-34q-20 0 -45 1q-25 0 -41 9.5t-25.5 23t-13.5 29.5t-4 30v167h911zM163 247q-12 0 -21 -8.5t-9 -21.5t9 -21.5t21 -8.5q13 0 22 8.5t9 21.5t-9 21.5t-22 8.5zM316 123q-8 -26 -14 -48q-5 -19 -10.5 -37t-7.5 -25t-3 -15t1 -14.5
t9.5 -10.5t21.5 -4h37h67h81h80h64h36q23 0 34 12t2 38q-5 13 -9.5 30.5t-9.5 34.5q-5 19 -11 39h-368zM336 498v228q0 11 2.5 23t10 21.5t20.5 15.5t34 6h188q31 0 51.5 -14.5t20.5 -52.5v-227h-327z" />
    <glyph glyph-name="add" unicode="&#xe762;" 
d="M984 583q-39 92 -110 163t-163 110q-95 40 -199 40t-199 -40q-92 -39 -163 -110t-110 -163q-40 -95 -40 -199t40 -199q39 -92 110 -163t163 -110q95 -40 199 -40t199 40q92 39 163 110t110 163q40 95 40 199t-40 199zM692 348h-144v-144q0 -15 -10.5 -25.5t-25.5 -10.5
t-25.5 10.5t-10.5 25.5v144h-144q-15 0 -25.5 10.5t-10.5 25.5t10.5 25.5t25.5 10.5h144v144q0 15 10.5 25.5t25.5 10.5t25.5 -10.5t10.5 -25.5v-144h144q15 0 25.5 -10.5t10.5 -25.5t-10.5 -25.5t-25.5 -10.5z" />
    <glyph glyph-name="add-o" unicode="&#xe763;" 
d="M984 583q-39 92 -110 163t-163 110q-95 40 -199 40t-199 -40q-92 -39 -163 -110t-110 -163q-40 -95 -40 -199t40 -199q39 -92 110 -163t163 -110q95 -40 199 -40t199 40q92 39 163 110t110 163q40 95 40 199t-40 199zM512 -56q-182 0 -311 129t-129 311t129 311t311 129
t311 -129t129 -311t-129 -311t-311 -129zM656 420h-108v108q0 15 -10.5 25.5t-25.5 10.5t-25.5 -10.5t-10.5 -25.5v-108h-108q-15 0 -25.5 -10.5t-10.5 -25.5t10.5 -25.5t25.5 -10.5h108v-108q0 -15 10.5 -25.5t25.5 -10.5t25.5 10.5t10.5 25.5v108h108q15 0 25.5 10.5
t10.5 25.5t-10.5 25.5t-25.5 10.5z" />
    <glyph glyph-name="radiobox" unicode="&#xe764;" 
d="M512 -126q-104 0 -198 40q-92 39 -162.5 109.5t-109.5 162.5q-40 95 -40 198t40 198q39 92 109.5 162.5t162.5 109.5q95 40 198 40t198 -40q92 -39 162.5 -109.5t109.5 -162.5q40 -94 40 -198t-40 -198q-39 -92 -109.5 -162.5t-162.5 -109.5q-94 -40 -198 -40zM512 812
q-116 0 -214.5 -57.5t-156 -156t-57.5 -214.5t57.5 -214.5t156 -156t214.5 -57.5t214.5 57.5t156 156t57.5 214.5t-57.5 214.5t-156 156t-214.5 57.5z" />
    <glyph glyph-name="compass-o" unicode="&#xe765;" 
d="M512 -128q-104 0 -199 40q-92 39 -163 110t-110 163q-40 95 -40 199t40 199q39 92 110 163t163 110q95 40 199 40t199 -40q92 -39 163 -110t110 -163q40 -95 40 -199t-40 -199q-39 -92 -110 -163t-163 -110q-95 -40 -199 -40zM512 814q-117 0 -216 -57.5t-156.5 -156.5
t-57.5 -216t57.5 -216t156.5 -156.5t216 -57.5t216 57.5t156.5 156.5t57.5 216t-57.5 216t-156.5 156.5t-216 57.5zM597 325l-144 144l236 91zM428 444l144 -144l-237 -92z" />
    <glyph glyph-name="compass" unicode="&#xe766;" 
d="M984 583q-39 92 -110 163t-163 110q-95 40 -199 40t-199 -40q-92 -39 -163 -110t-110 -163q-40 -95 -40 -199t40 -199q39 -92 110 -163t163 -110q95 -40 199 -40t199 40q92 39 163 110t110 163q40 95 40 199t-40 199zM335 208l93 236l144 -144zM597 325l-144 144l236 91z
" />
    <glyph glyph-name="error" unicode="&#xe767;" 
d="M563 384l386 386q11 11 11 26t-10.5 25.5t-25.5 10.5t-26 -11l-386 -386l-386 387q-11 10 -26 10t-25.5 -10.5t-10.5 -25.5t11 -25l386 -387l-387 -386q-10 -11 -10 -26t10.5 -25.5t25.5 -10.5t26 11l386 386l386 -386q11 -11 26 -11t25.5 10.5t10.5 25.5t-10 26z" />
    <glyph glyph-name="correct" unicode="&#xe768;" 
d="M412.5 92q-14.5 0 -25.5 11l-313 312q-10 11 -10 26t10.5 25.5t25.5 10.5t25 -11l287 -287l486 486q11 11 26 11t25.5 -10.5t10.5 -25.5t-11 -26l-511 -511q-11 -11 -25.5 -11z" />
    <glyph glyph-name="correct-c" unicode="&#xe769;" 
d="M984 583q-39 92 -110 163t-163 110q-95 40 -199 40t-199 -40q-92 -39 -163 -110t-110 -163q-40 -95 -40 -199t40 -199q39 -92 110 -163t163 -110q95 -40 199 -40t199 40q92 39 163 110t110 163q40 95 40 199t-40 199zM754 493l-269 -269q-10 -10 -25 -10t-26 10l-164 164
q-10 11 -10 26t10.5 25.5t25 10.5t25.5 -11l139 -139l243 244q10 10 25 10t25.5 -10.5t10.5 -25.5t-10 -25z" />
    <glyph glyph-name="correct-c-o" unicode="&#xe76a;" 
d="M984 583q-39 92 -110 163t-163 110q-95 40 -199 40t-199 -40q-92 -39 -163 -110t-110 -163q-40 -95 -40 -199t40 -199q39 -92 110 -163t163 -110q95 -40 199 -40t199 40q92 39 163 110t110 163q40 95 40 199t-40 199zM512 -56q-182 0 -311 129t-129 311t129 311t311 129
t311 -129t129 -311t-129 -311t-311 -129zM703 544l-243 -243l-139 138q-10 11 -25 11t-25.5 -10.5t-10.5 -25.5t10 -26l164 -164q11 -10 26 -10t25 10l269 269q10 11 10 25.5t-10.5 25t-25.5 10.5t-25 -10z" />
    <glyph glyph-name="delete" unicode="&#xe76b;" 
d="M984 583q-39 92 -110 163t-163 110q-95 40 -199 40t-199 -40q-92 -39 -163 -110t-110 -163q-40 -95 -40 -199t40 -199q39 -92 110 -163t163 -110q95 -40 199 -40t199 40q92 39 163 110t110 163q40 95 40 199t-40 199zM692 348h-360q-15 0 -25.5 10.5t-10.5 25.5
t10.5 25.5t25.5 10.5h360q15 0 25.5 -10.5t10.5 -25.5t-10.5 -25.5t-25.5 -10.5z" />
    <glyph glyph-name="delete-o" unicode="&#xe76c;" 
d="M984 583q-39 92 -110 163t-163 110q-95 40 -199 40t-199 -40q-92 -39 -163 -110t-110 -163q-40 -95 -40 -199t40 -199q39 -92 110 -163t163 -110q95 -40 199 -40t199 40q92 39 163 110t110 163q40 95 40 199t-40 199zM512 -56q-182 0 -311 129t-129 311t129 311t311 129
t311 -129t129 -311t-129 -311t-311 -129zM656 420h-288q-15 0 -25.5 -10.5t-10.5 -25.5t10.5 -25.5t25.5 -10.5h288q15 0 25.5 10.5t10.5 25.5t-10.5 25.5t-25.5 10.5z" />
    <glyph glyph-name="error-c-o" unicode="&#xe76d;" 
d="M984 583q-39 92 -110 163t-163 110q-95 40 -199 40t-199 -40q-92 -39 -163 -110t-110 -163q-40 -95 -40 -199t40 -199q39 -92 110 -163t163 -110q95 -40 199 -40t199 40q92 39 163 110t110 163q40 95 40 199t-40 199zM512 -56q-182 0 -311 129t-129 311t129 311t311 129
t311 -129t129 -311t-129 -311t-311 -129zM664.5 536.5q-10.5 10.5 -25.5 10.5t-25 -10l-102 -102l-102 102q-10 10 -25 10t-25.5 -10.5t-10.5 -25.5t10 -25l102 -102l-102 -102q-10 -10 -10 -25t10.5 -25.5t25.5 -10.5t25 10l102 102l102 -102q10 -10 25 -10t25.5 10.5
t10.5 25.5t-10 25l-102 102l102 102q10 10 10 25t-10.5 25.5z" />
    <glyph glyph-name="error-c" unicode="&#xe76e;" 
d="M984 583q-39 92 -110 163t-163 110q-95 40 -199 40t-199 -40q-92 -39 -163 -110t-110 -163q-40 -95 -40 -199t40 -199q39 -92 110 -163t163 -110q95 -40 199 -40t199 40q92 39 163 110t110 163q40 95 40 199t-40 199zM665 282q10 -10 10 -25t-10.5 -25.5t-25.5 -10.5
t-25 10l-102 102l-102 -102q-10 -10 -25 -10t-25.5 10.5t-10.5 25.5t10 25l102 102l-102 102q-10 10 -10 25t10.5 25.5t25.5 10.5t25 -10l102 -102l102 102q10 10 25 10t25.5 -10.5t10.5 -25.5t-10 -25l-102 -102z" />
    <glyph glyph-name="hotel" unicode="&#xe76f;" 
d="M577 385v347q0 15 -10.5 25.5t-25.5 10.5h-442q-15 0 -25.5 -10.5t-10.5 -25.5v-860h897v477q0 15 -10.5 25.5t-25.5 10.5h-347zM261 334h-72v114h72v-114zM261 527h-72v114h72v-114zM356 -56h-72v183h72v-183zM451 334h-72v114h72v-114zM451 527h-72v114h72v-114z
M677 142h-72v114h72v-114zM867 142h-72v114h72v-114z" />
    <glyph glyph-name="hotel-o" unicode="&#xe770;" 
d="M577 385v347q0 15 -10.5 25.5t-25.5 10.5h-442q-15 0 -25.5 -10.5t-10.5 -25.5v-860h897v477q0 15 -10.5 25.5t-25.5 10.5h-347zM505 -56h-149v183h-72v-183h-149v752h370v-752zM888 -56h-311v369h311v-369zM189 641h72v-114h-72v114zM379 641h72v-114h-72v114zM189 448
h72v-114h-72v114zM379 448h72v-114h-72v114zM605 256h72v-114h-72v114zM795 256h72v-114h-72v114z" />
    <glyph glyph-name="index-o" unicode="&#xe771;" 
d="M888 -64h-752q-30 0 -51 21t-21 51v508q0 40 34 61l376 237q17 11 38 11t38 -11l376 -237q34 -21 34 -61v-508q0 -30 -21 -51t-51 -21zM512 753l-376 -237v-508h752v508zM724 108q0 -15 -10.5 -25.5t-25.5 -10.5h-352q-15 0 -25.5 10.5t-10.5 25.5t10.5 25.5t25.5 10.5
h352q15 0 25.5 -10.5t10.5 -25.5z" />
    <glyph glyph-name="index" unicode="&#xe772;" 
d="M926 577l-376 237q-17 11 -38 11t-38 -11l-376 -237q-34 -21 -34 -61v-508q0 -30 21 -51t51 -21h752q30 0 51 21t21 51v508q0 40 -34 61zM724 108q0 -15 -10.5 -25.5t-25.5 -10.5h-352q-15 0 -25.5 10.5t-10.5 25.5t10.5 25.5t25.5 10.5h352q15 0 25.5 -10.5t10.5 -25.5z
" />
    <glyph glyph-name="infor" unicode="&#xe773;" 
d="M984 583q-39 92 -110 163t-163 110q-95 40 -199 40t-199 -40q-92 -39 -163 -110t-110 -163q-40 -95 -40 -199t40 -199q39 -92 110 -163t163 -110q95 -40 199 -40t199 40q92 39 163 110t110 163q40 95 40 199t-40 199zM548 178q0 -15 -10.5 -25.5t-25.5 -10.5t-25.5 10.5
t-10.5 25.5v232q0 15 10.5 25.5t25.5 10.5t25.5 -10.5t10.5 -25.5v-232zM512 518q-15 0 -25.5 10.5t-10.5 25.5t10.5 25.5t25.5 10.5t25.5 -10.5t10.5 -25.5t-10.5 -25.5t-25.5 -10.5z" />
    <glyph glyph-name="infor-o" unicode="&#xe774;" 
d="M984 583q-39 92 -110 163t-163 110q-95 40 -199 40t-199 -40q-92 -39 -163 -110t-110 -163q-40 -95 -40 -199t40 -199q39 -92 110 -163t163 -110q95 -40 199 -40t199 40q92 39 163 110t110 163q40 95 40 199t-40 199zM917 213q-33 -79 -94 -140t-140 -95
q-81 -34 -171 -34t-171 35q-79 33 -140 94t-94 140q-35 81 -35 171t35 171q33 79 94 140t140 95q81 34 171 34t171 -35q79 -33 140 -94t95 -140q34 -81 34 -171t-35 -171zM512 446q-15 0 -25.5 -10.5t-10.5 -25.5v-232q0 -15 10.5 -25.5t25.5 -10.5t25.5 10.5t10.5 25.5v232
q0 15 -10.5 25.5t-25.5 10.5zM512 554zM476 554q0 -15 10.5 -25.5t25.5 -10.5t25.5 10.5t10.5 25.5t-10.5 25.5t-25.5 10.5t-25.5 -10.5t-10.5 -25.5z" />
    <glyph glyph-name="location" unicode="&#xe775;" 
d="M512 832q-129 0 -220.5 -91.5t-91.5 -220.5q0 -49 31.5 -126t82.5 -161.5t90 -143.5t79 -113q11 -15 29 -15t29 15q40 54 79 113t90 143.5t82.5 161.5t31.5 126q0 129 -91.5 220.5t-220.5 91.5zM512 408q-48 0 -82 34t-34 82t34 82t82 34t82 -34t34 -82t-34 -82t-82 -34z
" />
    <glyph glyph-name="location-o" unicode="&#xe776;" 
d="M512 568q18 0 31 -13t13 -31t-13 -31t-31 -13t-31 13t-13 31t13 31t31 13zM512 640q-48 0 -82 -34t-34 -82t34 -82t82 -34t82 34t34 82t-34 82t-82 34zM512 760q99 0 169.5 -70.5t70.5 -169.5q0 -35 -28 -101q-26 -64 -75 -147q-57 -99 -137 -213q-80 114 -137 213
q-49 84 -75 147q-28 66 -28 101q0 99 70.5 169.5t169.5 70.5zM512 832q-129 0 -220.5 -91.5t-91.5 -220.5q0 -49 31.5 -126t82.5 -161.5t90 -143.5t79 -113q11 -15 29 -15t29 15q40 54 79 113t90 143.5t82.5 161.5t31.5 126q0 129 -91.5 220.5t-220.5 91.5z" />
    <glyph glyph-name="log-out" unicode="&#xe777;" 
d="M888 832h-752q-30 0 -51 -21t-21 -51v-752q0 -30 21 -51t51 -21h752q30 0 51 21t21 51v752q0 30 -21 51t-51 21zM553 194q-10 -10 -25 -10t-25.5 10.5t-10.5 25.5t10 25l103 103h-273q-15 0 -25.5 10.5t-10.5 25.5t10.5 25.5t25.5 10.5h273l-103 103q-10 10 -10 25
t10.5 25.5t25.5 10.5t25 -10l190 -190z" />
    <glyph glyph-name="log-out-o" unicode="&#xe778;" 
d="M888 832h-752q-30 0 -51 -21t-21 -51v-752q0 -30 21 -51t51 -21h752q30 0 51 21t21 51v752q0 30 -21 51t-51 21zM888 8h-752v752h752v-752zM502.5 573.5q-10.5 -10.5 -10.5 -25.5t10 -25l103 -103h-273q-15 0 -25.5 -10.5t-10.5 -25.5t10.5 -25.5t25.5 -10.5h273
l-103 -103q-10 -10 -10 -25t10.5 -25.5t25.5 -10.5t26 10l189 190l-190 190q-10 10 -25 10t-25.5 -10.5z" />
    <glyph glyph-name="mail-o" unicode="&#xe779;" 
d="M952 0h-880q-30 0 -51 21t-21 51v624q0 30 21 51t51 21h880q30 0 51 -21t21 -51v-624q0 -30 -21 -51t-51 -21zM72 696v-624h880v624h-880zM532 389q-20 -14 -40 0l-348 235v-87l348 -235q20 -13 40 0l348 235v87z" />
    <glyph glyph-name="mail" unicode="&#xe77a;" 
d="M952 768h-880q-30 0 -51 -21t-21 -51v-624q0 -30 21 -51t51 -21h880q30 0 51 21t21 51v624q0 30 -21 51t-51 21zM880 537l-348 -235q-20 -13 -40 0l-348 235v87l348 -235q20 -14 40 0l348 235v-87z" />
    <glyph glyph-name="menu" unicode="&#xe77b;" 
d="M100 760l824 -1q15 0 25.5 10.5t10.5 25.5t-10.5 25.5t-25.5 10.5l-824 1q-15 0 -25.5 -10.5t-10.5 -25.5t10.5 -25.5t25.5 -10.5zM924 557l-824 1q-15 0 -25.5 -10.5t-10.5 -25.5t10.5 -25.5t25.5 -10.5l824 -1q15 0 25.5 10.5t10.5 25.5t-10.5 25.5t-25.5 10.5z
M924 282l-824 1q-15 0 -25.5 -10.5t-10.5 -25.5t10.5 -25.5t25.5 -10.5l824 -1q15 0 25.5 10.5t10.5 25.5t-10.5 25.5t-25.5 10.5zM924 8l-824 1q-15 0 -25.5 -10.5t-10.5 -25.5t10.5 -25.5t25.5 -10.5l824 -1q15 0 25.5 10.5t10.5 25.5t-10.5 25.5t-25.5 10.5z" />
    <glyph glyph-name="message" unicode="&#xe77c;" 
d="M982 294q42 74 42 154t-42 154q-40 69 -112 121.5t-164.5 80.5t-193.5 28t-193.5 -28t-164.5 -81q-72 -52 -112 -121q-42 -74 -42 -154t42 -154q40 -69 112 -121.5t164.5 -80.5t193.5 -28q70 0 138 14l263 -74q5 -2 10 -2q17 0 28 14q15 19 3 40l-72 126q63 49 100 112z
M252 376q-30 0 -51 21t-21 51t21 51t51 21t51 -21t21 -51t-21 -51t-51 -21zM512 376q-30 0 -51 21t-21 51t21 51t51 21t51 -21t21 -51t-21 -51t-51 -21zM772 376q-30 0 -51 21t-21 51t21 51t51 21t51 -21t21 -51t-21 -51t-51 -21z" />
    <glyph glyph-name="message-o" unicode="&#xe77d;" 
d="M982 294q42 74 42 154t-42 154q-40 69 -112 121.5t-164.5 80.5t-193.5 28t-193.5 -28t-164.5 -81q-72 -52 -112 -121q-42 -74 -42 -154t42 -154q40 -69 112 -121.5t164.5 -80.5t193.5 -28q70 0 138 14l263 -74q5 -2 10 -2q17 0 28 14q15 19 3 40l-72 126q63 49 100 112z
M846 246q-7 -7 -19 -15q-19 -14 -41 -26l18 -31l18 -32l26 -45l-74 21l-122 34q-64 -15 -132 -16h-4.5h-3.5q-186 0 -316 95q-60 44 -92 100t-32 117t32 117t93 100q130 95 315.5 95t314.5 -95q61 -44 93 -100t32 -117q0 -115 -106 -202zM252 448zM180 448q0 -30 21 -51
t51 -21t51 21t21 51t-21 51t-51 21t-51 -21t-21 -51zM512 448zM440 448q0 -30 21 -51t51 -21t51 21t21 51t-21 51t-51 21t-51 -21t-21 -51zM772 448zM700 448q0 -30 21 -51t51 -21t51 21t21 51t-21 51t-51 21t-51 -21t-21 -51z" />
    <glyph glyph-name="more-h" unicode="&#xe77e;" 
d="M136 384zM64 384q0 -30 21 -51t51 -21t51 21t21 51t-21 51t-51 21t-51 -21t-21 -51zM512 384zM440 384q0 -30 21 -51t51 -21t51 21t21 51t-21 51t-51 21t-51 -21t-21 -51zM888 384zM816 384q0 -30 21 -51t51 -21t51 21t21 51t-21 51t-51 21t-51 -21t-21 -51z" />
    <glyph glyph-name="more-z" unicode="&#xe77f;" 
d="M512 760zM440 760q0 -30 21 -51t51 -21t51 21t21 51t-21 51t-51 21t-51 -21t-21 -51zM512 384zM440 384q0 -30 21 -51t51 -21t51 21t21 51t-21 51t-51 21t-51 -21t-21 -51zM512 8zM440 8q0 -30 21 -51t51 -21t51 21t21 51t-21 51t-51 21t-51 -21t-21 -51z" />
    <glyph glyph-name="order" unicode="&#xe780;" 
d="M924 832h-824q-15 0 -25.5 -10.5t-10.5 -25.5v-824q0 -15 10.5 -25.5t25.5 -10.5h824q15 0 25.5 10.5t10.5 25.5v824q0 15 -10.5 25.5t-25.5 10.5zM724 165q0 -15 -10.5 -25.5t-25.5 -10.5h-352q-15 0 -25.5 10.5t-10.5 25.5t10.5 25.5t25.5 10.5h352q15 0 25.5 -10.5
t10.5 -25.5zM724 384q0 -15 -10.5 -25.5t-25.5 -10.5h-352q-15 0 -25.5 10.5t-10.5 25.5t10.5 25.5t25.5 10.5h352q15 0 25.5 -10.5t10.5 -25.5zM724 603q0 -15 -10.5 -25.5t-25.5 -10.5h-352q-15 0 -25.5 10.5t-10.5 25.5t10.5 25.5t25.5 10.5h352q15 0 25.5 -10.5
t10.5 -25.5z" />
    <glyph glyph-name="order-o" unicode="&#xe781;" 
d="M924 -64h-824q-15 0 -25.5 10.5t-10.5 25.5v824q0 15 10.5 25.5t25.5 10.5h824q15 0 25.5 -10.5t10.5 -25.5v-824q0 -15 -10.5 -25.5t-25.5 -10.5zM136 760v-752h752v752h-752zM688 567h-352q-15 0 -25.5 10.5t-10.5 25.5t10.5 25.5t25.5 10.5h352q15 0 25.5 -10.5
t10.5 -25.5t-10.5 -25.5t-25.5 -10.5zM688 348h-352q-15 0 -25.5 10.5t-10.5 25.5t10.5 25.5t25.5 10.5h352q15 0 25.5 -10.5t10.5 -25.5t-10.5 -25.5t-25.5 -10.5zM688 129h-352q-15 0 -25.5 10.5t-10.5 25.5t10.5 25.5t25.5 10.5h352q15 0 25.5 -10.5t10.5 -25.5
t-10.5 -25.5t-25.5 -10.5z" />
    <glyph glyph-name="personal-o" unicode="&#xe782;" 
d="M960 -61h-896v36q0 69 38 131q35 58 98 102q130 91 312 91t312 -91q63 -44 99 -102q37 -62 37 -131v-36v0zM140 11h744q-17 80 -101 138q-112 78 -271 78t-271 -78q-84 -58 -101 -138zM510 400q-34 0 -65 20q-27 17 -47 49q-40 61 -40 146.5t40 146.5q20 32 47 50
q31 20 65 20t65 -20q27 -18 47 -50q40 -61 40 -146.5t-40 -146.5q-20 -32 -47 -49q-31 -20 -65 -20zM510 760q-30 0 -55 -42t-25 -102.5t25 -102t55 -41.5t55 41.5t25 102t-25 102.5t-55 42z" />
    <glyph glyph-name="personal" unicode="&#xe783;" 
d="M922 106q-35 58 -98 102q-130 91 -312 91t-312 -91q-63 -44 -99 -102q-37 -62 -37 -131v-36h896v36q0 69 -38 131zM445 420q31 -20 65 -20t65 20q27 17 47 49q40 61 40 146.5t-40 146.5q-20 32 -47 50q-31 20 -65 20t-65 -20q-27 -18 -47 -50q-40 -61 -40 -146.5
t40 -146.5q20 -31 47 -49z" />
    <glyph glyph-name="plane" unicode="&#xe784;" 
d="M615 754v-198l325 -194q20 -11 20 -33v-75q0 -18 -14 -30t-32 -8l-308 52l11 -187l102 -70q15 -10 15 -29v-71q0 -20 -15.5 -31.5t-34.5 -5.5l-174 53l-172 -53q-19 -6 -35 6t-16 31v71q0 19 16 29l102 70l11 187l-305 -52q-18 -4 -32.5 8t-14.5 30v75q0 22 20 33
l323 194v198q0 29 21 64t45.5 56.5t37 21.5t37 -21t46 -56t21.5 -65z" />
    <glyph glyph-name="plane-o" unicode="&#xe785;" 
d="M682 -121q-11 0 -22 3l-148 45l-148 -45q-35 -11 -64 10.5t-29 58.5v63q0 38 31 59l78 54l6 109l-236 -41q-33 -6 -58.5 15.5t-25.5 55.5v68q0 41 35 62l279 167v162q0 53 48 111q18 22 37 36q26 20 47 20q36 0 84 -55q48 -58 48 -112v-161l281 -168q35 -20 35 -62v-68
q0 -34 -25.5 -55.5t-58.5 -15.5l-238 41l6 -109l78 -53q31 -22 31 -60v-63q0 -37 -29 -58q-19 -14 -42 -14zM682 -50zM511.5 1q5.5 0 10.5 -2l160 -48v63l-93 63q-14 10 -15 28l-10 172q-1 17 12 28.5t30 8.5l282 -48v0v68l-299 178q-17 10 -17 31v182q0 26 -27 59
q-16 22 -33 33q-17 -12 -33 -33q-26 -35 -26 -59v-182q0 -21 -18 -31l-297 -177v-69v0l280 48q17 3 30 -8.5t12 -28.5l-10 -172q0 -18 -15 -28l-93 -63v-63l159 48q5 2 10.5 2z" />
    <glyph glyph-name="question-o" unicode="&#xe786;" 
d="M982 602q-40 69 -112 121.5t-164.5 80.5t-193.5 28t-193.5 -28t-164.5 -81q-72 -52 -112 -121q-42 -74 -42 -154t42 -154q40 -69 112 -121q85 -62 196 -89l137 -137q10 -11 25 -11t26 11l137 137q110 27 195 89q72 52 112 121q42 74 42 154t-42 154zM827 231
q-20 -15 -44 -28q-65 -37 -145 -54l-84 -84l-42 -42l-42 42l-84 84q-43 9 -83 25q-59 22 -106 57q-61 44 -93 100t-32 117t32 117t93 100q130 95 315.5 95t314.5 -95q61 -44 93 -100t32 -117t-32 -117t-93 -100zM510 670q-52 0 -93 -32t-54 -82q-4 -15 3.5 -27.5t22 -16.5
t27.5 3.5t17 22.5q7 26 28.5 43t48.5 17q33 0 56.5 -23.5t23.5 -56.5q0 -32 -21.5 -55t-52.5 -25l-33 -3v-97q0 -15 10.5 -25.5t25.5 -10.5t25.5 10.5t10.5 25.5v34q39 12 66 42q41 44 41 103q0 63 -44.5 108t-107.5 45zM519 230zM483 230.5q0 -14.5 10.5 -25.5t25.5 -11
t25.5 11t10.5 25.5t-10.5 25t-25.5 10.5t-25.5 -10.5t-10.5 -25z" />
    <glyph glyph-name="question" unicode="&#xe787;" 
d="M982 602q-40 69 -112 121.5t-164.5 80.5t-193.5 28t-193.5 -28t-164.5 -81q-72 -52 -112 -121q-42 -74 -42 -154t42 -154q40 -69 112 -121q85 -62 196 -89l137 -137q10 -11 25 -11t26 11l137 137q110 27 195 89q72 52 112 121q42 74 42 154t-42 154zM519 194
q-15 0 -25.5 11t-10.5 25.5t10.5 25t25.5 10.5t25.5 -10.5t10.5 -25t-10.5 -25.5t-25.5 -11zM622 414q-28 -30 -67 -42v-34q0 -14 -10.5 -25t-25.5 -11t-25.5 11t-10.5 25v97l33 3q31 2 52.5 25t21.5 55q0 33 -23.5 56.5t-56.5 23.5q-27 0 -48.5 -17t-28.5 -43
q-4 -15 -17 -22.5t-27.5 -3.5t-22 16.5t-3.5 27.5q13 50 54 82t93 32q63 0 107.5 -45t44.5 -107q0 -60 -40 -104z" />
    <glyph glyph-name="refresh" unicode="&#xe788;" 
d="M512 -64q-91 0 -174 35q-81 34 -143 96t-96 143q-35 83 -35 174t35 174q34 81 96 143t143 96q83 35 174 35q82 0 159 -29q73 -28 133 -79q46 -40 79 -89q1 14 11.5 23.5t24.5 9.5q15 0 25.5 -10.5t10.5 -25.5v-183q0 -14 -9.5 -24.5t-23.5 -11.5t-25 7.5t-14 22.5
q-21 138 -126 227.5t-245 89.5q-155 0 -265.5 -110.5t-110.5 -265.5t110.5 -265.5t265.5 -110.5q75 0 144 28.5t122 81.5q11 11 25.5 11t25 -10.5t10.5 -25.5t-10 -26q-62 -62 -143 -96q-83 -35 -174 -35z" />
    <glyph glyph-name="safety" unicode="&#xe789;" 
d="M883 745q-137 0 -255 51q-58 25 -92 51q-10 9 -23.5 9t-24.5 -9q-34 -26 -92 -51q-118 -51 -255 -51q-16 0 -27.5 -11.5t-11.5 -27.5q0 -179 45 -334q39 -135 108 -241q60 -92 132 -147q69 -53 124.5 -53t125.5 53q71 54 132 146q69 106 108 241q45 155 45 335
q0 16 -11.5 27.5t-27.5 11.5zM679 466l-174 -175q-12 -11 -27.5 -11t-27.5 11l-105 105q-12 12 -12 27.5t11.5 27t27.5 11.5t27 -11l78 -79l148 148q11 11 27 11t27.5 -11t11.5 -27t-12 -27z" />
    <glyph glyph-name="safety-o" unicode="&#xe78a;" 
d="M883 745q-137 0 -255 51q-58 25 -92 51q-10 9 -23.5 9t-24.5 -9q-34 -26 -92 -51q-118 -51 -255 -51q-16 0 -27.5 -11.5t-11.5 -27.5q0 -179 45 -334q39 -135 108 -241q60 -92 132 -147q69 -53 124.5 -53t125.5 53q71 54 132 146q69 106 108 241q45 155 45 335
q0 16 -11.5 27.5t-27.5 11.5zM704 172q-53 -80 -114 -127q-49 -38 -78 -38t-78 38q-61 47 -114 128q-132 202 -140 496q111 5 195 36t137 65q142 -92 332 -101q-8 -296 -140 -497zM399 451q-11 11 -27 11t-27.5 -11.5t-11.5 -27.5t12 -27l105 -105q11 -12 27 -12t28 12
l174 175q12 11 12 27t-11.5 27t-27.5 11t-27 -11l-148 -148z" />
    <glyph glyph-name="switches-o" unicode="&#xe78b;" 
d="M724 435h-424q-15 0 -25.5 10.5t-10.5 25.5t10.5 25.5t25.5 10.5h333l-23 22q-11 10 -11.5 25t10 26t25.5 11t26 -10l89 -84q17 -17 8 -39.5t-33 -22.5zM389 177q-14 0 -25 10l-89 84q-17 17 -8 39.5t33 22.5h424q15 0 25.5 -10.5t10.5 -25.5t-10.5 -25.5t-25.5 -10.5
h-333l23 -22q11 -10 11.5 -25t-10.5 -26q-10 -11 -26 -11zM512 -128q-104 0 -199 40q-92 39 -163 110t-110 163q-40 95 -40 199t40 199q39 92 110 163t163 110q95 40 199 40t199 -40q92 -39 163 -110t110 -163q40 -95 40 -199t-40 -199q-39 -92 -110 -163t-163 -110
q-95 -40 -199 -40zM512 824q-182 0 -311 -129t-129 -311t129 -311t311 -129t311 129t129 311t-129 311t-311 129z" />
    <glyph glyph-name="switches" unicode="&#xe78c;" 
d="M984 583q-39 92 -110 163t-163 110q-95 40 -199 40t-199 -40q-92 -39 -163 -110t-110 -163q-40 -95 -40 -199t40 -199q39 -92 110 -163t163 -110q95 -40 199 -40t199 40q92 39 163 110t110 163q40 95 40 199t-40 199zM724 261h-333l23 -22q11 -10 11.5 -25t-10.5 -26
q-10 -11 -26 -11q-14 0 -25 10l-89 84q-17 17 -8 39.5t33 22.5h424q15 0 25.5 -10.5t10.5 -25.5t-10.5 -25.5t-25.5 -10.5zM757 457.5q-9 -22.5 -33 -22.5h-424q-15 0 -25.5 10.5t-10.5 25.5t10.5 25.5t25.5 10.5h333l-23 22q-11 10 -11.5 25t10 26t25.5 11t26 -10l89 -84
q17 -17 8 -39.5z" />
    <glyph glyph-name="switches-plane-a" unicode="&#xe78d;" 
d="M919 413q-13 0 -23.5 8.5t-12.5 21.5q-21 138 -126 227.5t-245 89.5q-75 0 -144 -28.5t-122 -81.5q-10 -11 -25 -11t-25.5 10.5t-10.5 25.5t10 26q62 62 143 96q83 35 174 35q82 0 159 -29q73 -28 133 -79q46 -40 79 -89q1 14 11.5 23.5t24.5 9.5q15 0 25.5 -10.5
t10.5 -25.5v-183q0 -14 -9.5 -24.5t-23.5 -11.5h-3zM507 -62q-82 0 -159 29q-73 28 -133 79q-46 39 -79 89q-1 -14 -11.5 -23.5t-24.5 -9.5q-15 0 -25.5 10.5t-10.5 25.5v183q0 14 9.5 24.5t23.5 11.5t25 -8t14 -23q21 -137 126 -226.5t245 -89.5q76 0 145 28.5t122 83.5
q11 10 26 10t25.5 -10.5t10.5 -25.5t-10 -25q-62 -63 -143 -97q-84 -36 -176 -36z" />
    <glyph glyph-name="switches-plane-b" unicode="&#xe78e;" 
d="M714 515l-74 -74q-5 -4 -3 -10l43 -170q3 -11 -5 -18l-25 -25q-6 -7 -15 -6t-14 8l-75 109q-3 3 -8 3.5t-8 -2.5l-51 -51q-4 -4 -3 -9l11 -57q1 -5 -3 -9l-27 -26q-6 -7 -15.5 -5.5t-14.5 9.5l-39 74q-2 3 -4 4l-74 39q-8 5 -9.5 14.5t5.5 15.5l26 27q4 4 9 3l57 -11
q5 -1 9 3l51 51q3 3 2.5 8t-4.5 8l-107 75q-7 5 -8 13.5t5 15.5l26 25q7 7 18 5l169 -43q6 -2 10 3l74 74q10 10 24.5 10t25 -5t15.5 -10.5t10.5 -15.5t5.5 -25t-10 -25z" />
    <glyph glyph-name="train-o" unicode="&#xe78f;" 
d="M553 732h-82q-78 0 -132.5 -54.5t-54.5 -132.5q0 -18 11 -32l80 80q11 11 25.5 11t25 -11t10.5 -25.5t-10 -25.5l-50 -50h311q22 0 37.5 15.5t15.5 37.5q0 78 -54.5 132.5t-132.5 54.5zM983 -36l-151 150q17 14 30 30q30 38 41 85t0 95l-39 270v2q-24 104 -107 170
t-190 66h-110q-107 0 -190 -66.5t-107 -169.5l-1 -2l-38 -270q-11 -48 0 -94.5t41 -84.5q13 -17 30 -31l-153 -152q-11 -11 -11 -26t10.5 -25.5t25.5 -10.5t26 11l166 166q35 -13 73 -13h366q38 0 73 13l164 -164q11 -11 26 -11t25.5 10.5t10.5 25.5t-11 26zM650 160
q-58 -21 -138 -21t-138 21q-16 6 -27.5 13t-15 10.5t-4.5 6.5q1 2 4.5 6t15 10.5t27.5 12.5q58 21 138 21t138 -21q16 -6 27.5 -12.5t15 -10.5t4.5 -6q-1 -3 -4.5 -6.5t-15 -10.5t-27.5 -13zM758 151q11 18 11 39q0 33 -29 60q-22 20 -59 34q-71 28 -169 28t-169 -28
q-37 -14 -59 -34q-29 -27 -29 -60q0 -21 11 -39q-28 14 -47 38q-43 54 -28 120l1 2l38 270q19 79 82 129t145 50h110q82 0 145 -50t82 -129l38 -270v-2q16 -66 -27 -120q-19 -25 -47 -38zM762 9h-500q-15 0 -25.5 -10.5t-10.5 -25.5t10.5 -25.5t25.5 -10.5h500
q15 0 25.5 10.5t10.5 25.5t-10.5 25.5t-25.5 10.5z" />
    <glyph glyph-name="train" unicode="&#xe790;" 
d="M983 -36l-151 150q17 14 30 30q30 38 41 85t0 95l-39 270v2q-24 104 -107 170t-190 66h-110q-107 0 -190 -66.5t-107 -169.5l-1 -2l-38 -270q-11 -48 0 -94.5t41 -84.5q13 -17 30 -31l-153 -152q-11 -11 -11 -26t10.5 -25.5t25.5 -10.5t26 11l166 166q35 -13 73 -13h366
q38 0 73 13l164 -164q11 -11 26 -11t25.5 10.5t10.5 25.5t-11 26zM650 160q-58 -21 -138 -21t-138 21q-16 6 -27.5 13t-15 10.5t-4.5 6.5q1 2 4.5 6t15 10.5t27.5 12.5q58 21 138 21t138 -21q16 -6 27.5 -12.5t15 -10.5t4.5 -6q-1 -3 -4.5 -6.5t-15 -10.5t-27.5 -13z
M740 545q0 -22 -15.5 -37.5t-37.5 -15.5h-311l50 50q11 11 11 25.5t-11 25t-25.5 10.5t-25.5 -10l-80 -81q-11 15 -11 33q0 78 54.5 132.5t132.5 54.5h82q78 0 132.5 -54.5t54.5 -132.5zM762 9h-500q-15 0 -25.5 -10.5t-10.5 -25.5t10.5 -25.5t25.5 -10.5h500
q15 0 25.5 10.5t10.5 25.5t-10.5 25.5t-25.5 10.5z" />
    <glyph glyph-name="triangle-arrow-r" unicode="&#xe791;" 
d="M431 622l213 -212q10 -11 10 -26t-10 -25l-213 -213q-17 -17 -39 -8t-22 33v426q0 24 22 33t39 -8z" />
    <glyph glyph-name="triangle-arrow-l" unicode="&#xe792;" 
d="M593 622l-213 -212q-10 -11 -10 -26t10 -25l213 -213q17 -17 39 -8t22 33v426q0 24 -22 33t-39 -8z" />
    <glyph glyph-name="triangle-arrow-u" unicode="&#xe793;" 
d="M274 303l212 213q11 10 26 10t25 -10l213 -213q17 -17 8 -39t-33 -22h-426q-24 0 -33 22t8 39z" />
    <glyph glyph-name="triangle-arrow-d" unicode="&#xe794;" 
d="M274 465l212 -213q11 -10 26 -10t25 10l213 213q17 17 8 39t-33 22h-426q-24 0 -33 -22t8 -39z" />
    <glyph glyph-name="userinfo" unicode="&#xe795;" 
d="M984 583q-39 92 -110 163t-163 110q-95 40 -199 40t-199 -40q-92 -39 -163 -110t-110 -163q-40 -95 -40 -199t40 -199q39 -92 110 -163t163 -110q95 -40 199 -40t199 40q92 39 163 110t110 163q40 95 40 199t-40 199zM511 614q26 0 44 -28.5t18 -68.5t-18 -68t-44 -28
t-44 28t-18 68t18 68.5t44 28.5zM291 190q0 64 64.5 109.5t156.5 45.5t156.5 -45.5t64.5 -109.5h-442z" />
    <glyph glyph-name="userinfo-o" unicode="&#xe796;" 
d="M512 -128q-104 0 -199 40q-92 39 -163 110t-110 163q-40 95 -40 199t40 199q39 92 110 163t163 110q95 40 199 40t199 -40q92 -39 163 -110t110 -163q40 -95 40 -199t-40 -199q-39 -92 -110 -163t-163 -110q-95 -40 -199 -40zM512 824q-182 0 -311 -129t-129 -311
t129 -311t311 -129t311 129t129 311t-129 311t-311 129zM733 190q0 64 -64.5 109.5t-156.5 45.5t-156.5 -45.5t-64.5 -109.5h442zM449 517q0 -40 18 -68t44 -28t44 28t18 68t-18 68.5t-44 28.5t-44 -28.5t-18 -68.5z" />
    <glyph glyph-name="id-card" unicode="&#xe797;" 
d="M952 768h-880q-30 0 -51 -21t-21 -51v-624q0 -30 21 -51t51 -21h880q30 0 51 21t21 51v624q0 30 -21 51t-51 21zM321 554q21 0 35.5 -23t14.5 -55t-14.5 -54.5t-35.5 -22.5t-35.5 22.5t-14.5 54.5t14.5 55t35.5 23zM145 214q0 52 52 88t125 36t125 -36t52 -87zM794 212
h-160q-15 0 -25.5 10.5t-10.5 25.5t10.5 25.5t25.5 10.5h160q15 0 25.5 -10.5t10.5 -25.5t-10.5 -25.5t-25.5 -10.5zM794 348h-160q-15 0 -25.5 10.5t-10.5 25.5t10.5 25.5t25.5 10.5h160q15 0 25.5 -10.5t10.5 -25.5t-10.5 -25.5t-25.5 -10.5zM794 477h-160
q-15 0 -25.5 10.5t-10.5 25.5t10.5 25.5t25.5 10.5h160q15 0 25.5 -10.5t10.5 -25.5t-10.5 -25.5t-25.5 -10.5z" />
    <glyph glyph-name="id-card-o" unicode="&#xe798;" 
d="M952 768h-880q-30 0 -51 -21t-21 -51v-624q0 -30 21 -51t51 -21h880q30 0 51 21t21 51v624q0 30 -21 51t-51 21zM952 72h-880v624h880v-624zM322 338q-73 0 -125 -36t-52 -87h354q0 51 -52 87t-125 36zM271 476q0 -32 14.5 -54.5t35.5 -22.5t35.5 22.5t14.5 54.5
t-14.5 55t-35.5 23t-35.5 -23t-14.5 -55zM794 549h-160q-15 0 -25.5 -10.5t-10.5 -25.5t10.5 -25.5t25.5 -10.5h160q15 0 25.5 10.5t10.5 25.5t-10.5 25.5t-25.5 10.5zM794 420h-160q-15 0 -25.5 -10.5t-10.5 -25.5t10.5 -25.5t25.5 -10.5h160q15 0 25.5 10.5t10.5 25.5
t-10.5 25.5t-25.5 10.5zM794 284h-160q-15 0 -25.5 -10.5t-10.5 -25.5t10.5 -25.5t25.5 -10.5h160q15 0 25.5 10.5t10.5 25.5t-10.5 25.5t-25.5 10.5z" />
    <glyph glyph-name="arrow-d" unicode="&#xe799;" 
d="M512 896q-104 0 -199 -40q-92 -39 -163 -110t-110 -163q-40 -95 -40 -199t40 -199q39 -92 110 -163t163 -110q95 -40 199 -40t199 40q92 39 163 110t110 163q40 95 40 199t-40 199q-39 92 -110 163t-163 110q-95 40 -199 40zM512 289l206 206q11 11 26 11t25.5 -10.5
t10.5 -25.5t-11 -26l-231 -231q-11 -11 -26 -11t-25 11l-232 232q-11 10 -11 25t10.5 25.5t25.5 10.5t26 -10z" />
    <glyph glyph-name="arrow-u" unicode="&#xe79a;" 
d="M711 -88q92 39 163 110t110 163q40 95 40 199t-40 199q-39 92 -110 163t-163 110q-95 40 -199 40t-199 -40q-92 -39 -163 -110t-110 -163q-40 -95 -40 -199t40 -199q39 -92 110 -163t163 -110q95 -40 199 -40t199 40zM306 272q-11 -10 -26 -10t-25.5 10.5t-10.5 25.5
t11 26l231 231q11 11 26 11t25 -11l232 -232q11 -10 11 -25t-10.5 -25.5t-25.5 -10.5t-26 11l-206 206z" />
    <glyph glyph-name="arrow-l" unicode="&#xe79b;" 
d="M984 583q-39 92 -110 163t-163 110q-95 40 -199 40t-199 -40q-92 -39 -163 -110t-110 -163q-40 -95 -40 -199t40 -199q39 -92 110 -163t163 -110q95 -40 199 -40t199 40q92 39 163 110t110 163q40 95 40 199t-40 199zM624 178q10 -11 10 -26t-10.5 -25.5t-25.5 -10.5
t-26 11l-231 231q-11 11 -11 26t11 25l232 232q10 11 25 11t25.5 -10.5t10.5 -25.5t-10 -26l-207 -206z" />
    <glyph glyph-name="arrow-r" unicode="&#xe79c;" 
d="M0 384q0 -104 40 -199q39 -92 110 -163t163 -110q95 -40 199 -40t199 40q92 39 163 110t110 163q40 95 40 199t-40 199q-39 92 -110 163t-163 110q-95 40 -199 40t-199 -40q-92 -39 -163 -110t-110 -163q-40 -95 -40 -199zM607 384l-207 206q-10 11 -10 26t10.5 25.5
t25.5 10.5t25 -11l232 -231q11 -11 11 -26t-11 -25l-231 -232q-11 -11 -26 -11t-25.5 10.5t-10.5 25.5t11 26z" />
    <glyph glyph-name="arrow-o-l" unicode="&#xe79d;" 
d="M984 583q-39 92 -110 163t-163 110q-95 40 -199 40t-199 -40q-92 -39 -163 -110t-110 -163q-40 -95 -40 -199t40 -199q39 -92 110 -163t163 -110q95 -40 199 -40t199 40q92 39 163 110t110 163q40 95 40 199t-40 199zM917 213q-33 -79 -94 -140t-140 -95
q-81 -34 -171 -34t-171 35q-79 33 -140 94t-94 140q-35 81 -35 171t35 171q33 79 94 140t140 95q81 34 171 34t171 -35q79 -33 140 -94t95 -140q34 -81 34 -171t-35 -171zM623.5 641.5q-10.5 10.5 -25.5 10.5t-25 -10l-232 -232q-11 -11 -11 -26t11 -25l232 -232
q10 -11 25 -11t25.5 10.5t10.5 25.5t-10 26l-207 206l206 206q11 11 11 26t-10.5 25.5z" />
    <glyph glyph-name="arrow-o-u" unicode="&#xe79e;" 
d="M984 583q-39 92 -110 163t-163 110q-95 40 -199 40t-199 -40q-92 -39 -163 -110t-110 -163q-40 -95 -40 -199t40 -199q39 -92 110 -163t163 -110q95 -40 199 -40t199 40q92 39 163 110t110 163q40 95 40 199t-40 199zM917 213q-33 -79 -94 -140t-140 -95
q-81 -34 -171 -34t-171 35q-79 33 -140 94t-94 140q-35 81 -35 171t35 171q33 79 94 140t140 95q81 34 171 34t171 -35q79 -33 140 -94t95 -140q34 -81 34 -171t-35 -171zM538 556q-11 10 -26 10t-25 -10l-232 -232q-11 -11 -11 -26t10.5 -25.5t25.5 -10.5t26 11l206 206
l206 -206q11 -11 26 -11t25.5 10.5t10.5 25.5t-11 26z" />
    <glyph glyph-name="arrow-o-r" unicode="&#xe79f;" 
d="M984 583q-39 92 -110 163t-163 110q-95 40 -199 40t-199 -40q-92 -39 -163 -110t-110 -163q-40 -95 -40 -199t40 -199q39 -92 110 -163t163 -110q95 -40 199 -40t199 40q92 39 163 110t110 163q40 95 40 199t-40 199zM917 213q-33 -79 -94 -140t-140 -95
q-81 -34 -171 -34t-171 35q-79 33 -140 94t-94 140q-35 81 -35 171t35 171q33 79 94 140t140 95q81 34 171 34t171 -35q79 -33 140 -94t95 -140q34 -81 34 -171t-35 -171zM400.5 641.5q-10.5 -10.5 -10.5 -25.5t10 -25l207 -207l-207 -206q-10 -11 -10 -26t10.5 -25.5
t25.5 -10.5t26 11l231 231q11 11 11 26t-11 25l-232 232q-10 11 -25 11t-25.5 -10.5z" />
    <glyph glyph-name="arrow-o-d" unicode="&#xe7a0;" 
d="M512 -128q-104 0 -199 40q-92 39 -163 110t-110 163q-40 95 -40 199t40 199q39 92 110 163t163 110q95 40 199 40t199 -40q92 -39 163 -110t110 -163q40 -95 40 -199t-40 -199q-39 -92 -110 -163t-163 -110q-95 -40 -199 -40zM512 824q-90 0 -171 -35q-79 -33 -140 -94
t-94 -140q-35 -81 -35 -171t35 -171q33 -79 94 -140t140 -95q81 -34 171 -34t171 35q79 33 140 94t95 140q34 81 34 171t-35 171q-33 79 -94 140t-140 95q-81 34 -171 34zM538 212q-11 -10 -26 -10t-25 10l-232 232q-11 11 -11 26t10.5 25.5t25.5 10.5t26 -11l206 -206
l206 206q11 11 26 11t25.5 -10.5t10.5 -25.5t-11 -26z" />
    <glyph glyph-name="date-o" unicode="&#xe7a1;" 
d="M902 768h-142v28q0 15 -10.5 25.5t-25.5 10.5t-25.5 -10.5t-10.5 -25.5v-28h-352v28q0 15 -10.5 25.5t-25.5 10.5t-25.5 -10.5t-10.5 -25.5v-28h-142q-30 0 -51 -21t-21 -51v-624q0 -30 21 -51t51 -21h780q30 0 51 21t21 51v624q0 30 -21 51t-51 21zM264 696v-60
q0 -15 10.5 -25.5t25.5 -10.5t25.5 10.5t10.5 25.5v60h352v-60q0 -15 10.5 -25.5t25.5 -10.5t25.5 10.5t10.5 25.5v60h142v-122h-780v122h142zM902 72h-780v430h780v-430zM688 415h-352q-15 0 -25.5 -10.5t-10.5 -25.5t10.5 -25.5t25.5 -10.5h352q15 0 25.5 10.5t10.5 25.5
t-10.5 25.5t-25.5 10.5zM688 225h-352q-15 0 -25.5 -10.5t-10.5 -25.5t10.5 -25.5t25.5 -10.5h352q15 0 25.5 10.5t10.5 25.5t-10.5 25.5t-25.5 10.5z" />
    <glyph glyph-name="date" unicode="&#xe7a2;" 
d="M902 768h-142v-132q0 -15 -10.5 -25.5t-25.5 -10.5t-25.5 10.5t-10.5 25.5v132h-352v-132q0 -15 -10.5 -25.5t-25.5 -10.5t-25.5 10.5t-10.5 25.5v132h-142q-30 0 -51 -21t-21 -51v-624q0 -30 21 -51t51 -21h780q30 0 51 21t21 51v624q0 30 -21 51t-51 21zM688 153h-352
q-15 0 -25.5 10.5t-10.5 25.5t10.5 25.5t25.5 10.5h352q15 0 25.5 -10.5t10.5 -25.5t-10.5 -25.5t-25.5 -10.5zM688 343h-352q-15 0 -25.5 10.5t-10.5 25.5t10.5 25.5t25.5 10.5h352q15 0 25.5 -10.5t10.5 -25.5t-10.5 -25.5t-25.5 -10.5zM896 502h-768v72h768v-72zM300 832
q-15 0 -25.5 -10.5t-10.5 -25.5v-28h72v28q0 15 -10.5 25.5t-25.5 10.5zM724 832q-15 0 -25.5 -10.5t-10.5 -25.5v-28h72v28q0 15 -10.5 25.5t-25.5 10.5z" />
    <glyph glyph-name="set-o" unicode="&#xe7a3;" 
d="M698 -64h-372l-262 262v372l262 262h372l262 -262v-372zM356 8h312l220 220v312l-220 220h-312l-220 -220v-312zM512 384zM396 384q0 -48 34 -82t82 -34t82 34t34 82t-34 82t-82 34t-82 -34t-34 -82z" />
    <glyph glyph-name="set" unicode="&#xe7a4;" 
d="M698 832h-372l-262 -262v-372l262 -262h372l262 262v372zM512 268q-48 0 -82 34t-34 82t34 82t82 34t82 -34t34 -82t-34 -82t-82 -34z" />
    <glyph glyph-name="nice" unicode="&#xe7a5;" 
d="M984 583q-39 92 -110 163t-163 110q-95 40 -199 40t-199 -40q-92 -39 -163 -110t-110 -163q-40 -95 -40 -199t40 -199q39 -92 110 -163t163 -110q95 -40 199 -40t199 40q92 39 163 110t110 163q40 95 40 199t-40 199zM718 643q30 0 51 -25t21 -61t-21 -61t-51 -25t-51 25
t-21 61t21 61t51 25zM306 643q30 0 51 -25t21 -61t-21 -61t-51 -25t-51 25t-21 61t21 61t51 25zM858 332q-15 -127 -108 -214q-100 94 -238 94t-238 -94q-93 87 -108 214q-2 16 9 28t27 12h620q16 0 27 -12t9 -28z" />
    <glyph glyph-name="nice-o" unicode="&#xe7a6;" 
d="M512 -128q-104 0 -199 40q-92 39 -163 110t-110 163q-40 95 -40 199t40 199q39 92 110 163t163 110q95 40 199 40t199 -40q92 -39 163 -110t110 -163q40 -95 40 -199t-40 -199q-39 -92 -110 -163t-163 -110q-95 -40 -199 -40zM512 824q-182 0 -311 -129t-129 -311
t129 -311t311 -129t311 129t129 311t-129 311t-311 129zM274 118q100 94 238 94t238 -94q93 87 108 214q2 16 -9 28t-27 12h-620q-16 0 -27 -12t-9 -28q15 -127 108 -214zM234 557q0 -36 21 -61t51 -25t51 25t21 61t-21 61t-51 25t-51 -25t-21 -61zM646 557.5
q0 -35.5 21 -61t51 -25.5t51 25.5t21 61t-21 60.5t-51 25t-51 -25t-21 -60.5z" />
    <glyph glyph-name="normal" unicode="&#xe7a7;" 
d="M984 583q-39 92 -110 163t-163 110q-95 40 -199 40t-199 -40q-92 -39 -163 -110t-110 -163q-40 -95 -40 -199t40 -199q39 -92 110 -163t163 -110q95 -40 199 -40t199 40q92 39 163 110t110 163q40 95 40 199t-40 199zM234 557q0 36 21 61t51 25t51 -25t21 -61t-21 -61
t-51 -25t-51 25t-21 61zM740 192q-107 -54 -228 -54t-228 54q-13 6 -18 20.5t1.5 27.5t21 18t27.5 -2q92 -46 196 -46t196 46q13 7 27 2t21 -18t2 -27.5t-18 -20.5zM718 471q-30 0 -51 25t-21 61t21 61t51 25t51 -25t21 -61t-21 -61t-51 -25z" />
    <glyph glyph-name="normal-o" unicode="&#xe7a8;" 
d="M512 -128q-104 0 -199 40q-92 39 -163 110t-110 163q-40 95 -40 199t40 199q39 92 110 163t163 110q95 40 199 40t199 -40q92 -39 163 -110t110 -163q40 -95 40 -199t-40 -199q-39 -92 -110 -163t-163 -110q-95 -40 -199 -40zM512 824q-182 0 -311 -129t-129 -311
t129 -311t311 -129t311 129t129 311t-129 311t-311 129zM512 138q-121 0 -228 54q-13 6 -18 20.5t1.5 27.5t21 18t27.5 -2q92 -46 196 -46t196 46q13 7 27 2t21 -18t2 -27.5t-18 -20.5q-107 -54 -228 -54zM234 557q0 -36 21 -61t51 -25t51 25t21 61t-21 61t-51 25t-51 -25
t-21 -61zM646 557.5q0 -35.5 21 -61t51 -25.5t51 25.5t21 61t-21 60.5t-51 25t-51 -25t-21 -60.5z" />
    <glyph glyph-name="badreview" unicode="&#xe7a9;" 
d="M984 583q-39 92 -110 163t-163 110q-95 40 -199 40t-199 -40q-92 -39 -163 -110t-110 -163q-40 -95 -40 -199t40 -199q39 -92 110 -163t163 -110q95 -40 199 -40t199 40q92 39 163 110t110 163q40 95 40 199t-40 199zM234 557q0 36 21 61t51 25t51 -25t21 -61t-21 -61
t-51 -25t-51 25t-21 61zM756 158q-10 -20 -32 -20q-9 0 -16 4q-92 46 -196 46t-196 -46q-13 -7 -27.5 -2t-21 18.5t-1.5 27.5t18 21q107 53 228 53t228 -54q13 -6 18 -20t-2 -28zM718 471q-30 0 -51 25t-21 61t21 61t51 25t51 -25t21 -61t-21 -61t-51 -25z" />
    <glyph glyph-name="badreview-o" unicode="&#xe7aa;" 
d="M512 -128q-104 0 -199 40q-92 39 -163 110t-110 163q-40 95 -40 199t40 199q39 92 110 163t163 110q95 40 199 40t199 -40q92 -39 163 -110t110 -163q40 -95 40 -199t-40 -199q-39 -92 -110 -163t-163 -110q-95 -40 -199 -40zM512 824q-182 0 -311 -129t-129 -311
t129 -311t311 -129t311 129t129 311t-129 311t-311 129zM724 138q-9 0 -16 4q-92 46 -196 46t-196 -46q-13 -7 -27.5 -2t-21 18.5t-1.5 27.5t18 21q107 53 228 53t228 -54q13 -6 18 -20t-2 -28q-10 -20 -32 -20zM234 557q0 -36 21 -61t51 -25t51 25t21 61t-21 61t-51 25
t-51 -25t-21 -61zM646 557.5q0 -35.5 21 -61t51 -25.5t51 25.5t21 61t-21 60.5t-51 25t-51 -25t-21 -60.5z" />
    <glyph glyph-name="phone-o" unicode="&#xe7ab;" 
d="M824 896h-624q-30 0 -51 -21t-21 -51v-880q0 -30 21 -51t51 -21h624q30 0 51 21t21 51v880q0 30 -21 51t-51 21zM824 824v-658h-624v658h624zM824 -56h-624v144h624v-144zM512 18zM476 18q0 -15 10.5 -25.5t25.5 -10.5t25.5 10.5t10.5 25.5t-10.5 25.5t-25.5 10.5
t-25.5 -10.5t-10.5 -25.5z" />
    <glyph glyph-name="phone" unicode="&#xe7ac;" 
d="M824 896h-624q-30 0 -51 -21t-21 -51v-880q0 -30 21 -51t51 -21h624q30 0 51 21t21 51v880q0 30 -21 51t-51 21zM512 -18q-15 0 -25.5 10.5t-10.5 25.5t10.5 25.5t25.5 10.5t25.5 -10.5t10.5 -25.5t-10.5 -25.5t-25.5 -10.5zM823 91h-622v72h622v-72z" />
    <glyph glyph-name="computer-o" unicode="&#xe7ad;" 
d="M888 756h-752q-30 0 -51 -21t-21 -51v-430q0 -30 21 -51t51 -21h340v-98h-348q-15 0 -25.5 -10.5t-10.5 -25.5t10.5 -25.5t25.5 -10.5h768q15 0 25.5 10.5t10.5 25.5t-10.5 25.5t-25.5 10.5h-348v98h340q30 0 51 21t21 51v430q0 30 -21 51t-51 21zM888 254h-752v40h752
v72h-752v318h752v-430z" />
    <glyph glyph-name="computer" unicode="&#xe7ae;" 
d="M888 756h-752q-30 0 -51 -21t-21 -51v-430q0 -30 21 -51t51 -21h340v-98h-348q-15 0 -25.5 -10.5t-10.5 -25.5t10.5 -25.5t25.5 -10.5h768q15 0 25.5 10.5t10.5 25.5t-10.5 25.5t-25.5 10.5h-348v98h340q30 0 51 21t21 51v430q0 30 -21 51t-51 21zM888 294h-752v72h752
v-72z" />
    <glyph glyph-name="thumbs-o" unicode="&#xe7af;" 
d="M198 36h-62q-30 0 -51 21.5t-21 50.5v352q0 30 21 51t51 21h62q30 0 51 -21t21 -51v-352q0 -29 -21 -50.5t-51 -21.5zM136 460v-352h62v352h-62zM804 36h-402q-30 0 -51 21.5t-21 50.5v352q0 30 21 51t51 21h53q23 23 41 48.5t26 44t13 36.5t5.5 24.5t0.5 9.5
q0 15 10.5 26t25.5 11h94q18 0 29 -15q43 -57 50 -106q3 -29 -6 -79h132q34 0 55.5 -26.5t14.5 -59.5l-72 -352q-5 -25 -25 -41.5t-45 -16.5zM402 460v-352h402l72 352h-178q-18 0 -29 14.5t-5 32.5q18 64 14 95q-2 21 -26 57h-43q-22 -105 -116 -189q-10 -10 -24 -10h-67v0
z" />
    <glyph glyph-name="thumbs" unicode="&#xe7b0;" 
d="M198 532h-62q-30 0 -51 -21t-21 -51v-352q0 -29 21 -50.5t51 -21.5h62q30 0 51 21.5t21 50.5v352q0 30 -21 51t-51 21zM931.5 505.5q-21.5 26.5 -55.5 26.5h-132q9 50 6 79q-6 47 -50 106q-11 15 -29 15h-94q-15 0 -25.5 -11t-10.5 -26q0 -3 -0.5 -9.5t-5.5 -24.5
t-13 -36.5t-26 -44t-41 -48.5h-53q-30 0 -51 -21t-21 -51v-352q0 -29 21 -50.5t51 -21.5h402q25 0 45 16.5t25 41.5l72 352q7 33 -14.5 59.5z" />
    <glyph glyph-name="thumbs-b-o" unicode="&#xe7b1;" 
d="M198 732h-62q-30 0 -51 -21.5t-21 -50.5v-352q0 -30 21 -51t51 -21h62q30 0 51 21t21 51v352q0 29 -21 50.5t-51 21.5zM198 308h-62v352h62v-352zM946 322l-72 352q-5 25 -25 41.5t-45 16.5h-402q-30 0 -51 -21.5t-21 -50.5v-352q0 -30 21 -51t51 -21h53q52 -51 74 -110
q11 -29 12 -53q0 -15 10 -26q10 -10 26 -10h94q18 0 29 14q43 57 50 106q3 29 -6 79h132q34 0 55.5 26.5t14.5 59.5zM698 308q-18 0 -29 -14.5t-5 -32.5q18 -64 14 -95q-3 -21 -26 -57h-43q-22 105 -116 189q-10 10 -24 10h-67v352h402l72 -352h-178v0z" />
    <glyph glyph-name="thumbs-b" unicode="&#xe7b2;" 
d="M198 732h-62q-30 0 -51 -21.5t-21 -50.5v-352q0 -30 21 -51t51 -21h62q30 0 51 21t21 51v352q0 29 -21 50.5t-51 21.5zM946 322l-72 352q-5 25 -25 41.5t-45 16.5h-402q-30 0 -51 -21.5t-21 -50.5v-352q0 -30 21 -51t51 -21h53q52 -51 74 -110q11 -29 12 -53
q0 -15 10 -26q10 -10 26 -10h94q18 0 29 14q43 57 50 106q3 29 -6 79h132q34 0 55.5 26.5t14.5 59.5zM911 315z" />
    <glyph glyph-name="checkbox" unicode="&#xe7b3;" 
d="M924 832h-824q-15 0 -25.5 -10.5t-10.5 -25.5v-824q0 -15 10.5 -25.5t25.5 -10.5h824q15 0 25.5 10.5t10.5 25.5v824q0 15 -10.5 25.5t-25.5 10.5zM754 493l-269 -269q-10 -10 -25 -10t-26 10l-164 164q-10 11 -10 26t10.5 25.5t25 10.5t25.5 -11l139 -139l243 244
q10 10 25 10t25.5 -10.5t10.5 -25.5t-10 -25z" />
    <glyph glyph-name="checkbox-o" unicode="&#xe7b4;" 
d="M924 -64h-824q-15 0 -25.5 10.5t-10.5 25.5v824q0 15 10.5 25.5t25.5 10.5h824q15 0 25.5 -10.5t10.5 -25.5v-824q0 -15 -10.5 -25.5t-25.5 -10.5zM136 8h752v752h-752v-752z" />
    <glyph glyph-name="picture-o" unicode="&#xe7b5;" 
d="M952 768h-880q-30 0 -51 -21t-21 -51v-624q0 -30 21 -51t51 -21h880q30 0 51 21t21 51v624q0 30 -21 51t-51 21zM916 696q-14 -73 -64 -137q-109 -139 -340 -139q-146 0 -254 -52q-88 -43 -145 -118q-23 -31 -41 -66v512h844zM952 72h-844q14 73 64 137q109 139 340 139
q146 0 254 52q88 43 145 118q23 31 41 66v-512zM272 524zM200 524q0 -30 21 -51t51 -21t51 21t21 51t-21 51t-51 21t-51 -21t-21 -51z" />
    <glyph glyph-name="picture" unicode="&#xe7b6;" 
d="M952 768h-880q-30 0 -51 -21t-21 -51v-624q0 -30 21 -51t51 -21h880q30 0 51 21t21 51v624q0 30 -21 51t-51 21zM916 696q-14 -73 -64 -137q-109 -139 -340 -139q-146 0 -254 -52q-88 -43 -145 -118q-23 -31 -41 -66v512h844zM272 524zM200 524q0 -30 21 -51t51 -21
t51 21t21 51t-21 51t-51 21t-51 -21t-21 -51z" />
    <glyph glyph-name="sweep-o" unicode="&#xe7b7;" 
d="M728 760h160v-160q0 -15 10.5 -25.5t25.5 -10.5t25.5 10.5t10.5 25.5v196q0 15 -10.5 25.5t-25.5 10.5h-196q-15 0 -25.5 -10.5t-10.5 -25.5t10.5 -25.5t25.5 -10.5zM136 600v160h160q15 0 25.5 10.5t10.5 25.5t-10.5 25.5t-25.5 10.5h-196q-15 0 -25.5 -10.5
t-10.5 -25.5v-196q0 -15 10.5 -25.5t25.5 -10.5t25.5 10.5t10.5 25.5zM924 204q-15 0 -25.5 -10.5t-10.5 -25.5v-160h-160q-15 0 -25.5 -10.5t-10.5 -25.5t10.5 -25.5t25.5 -10.5h196q15 0 25.5 10.5t10.5 25.5v196q0 15 -10.5 25.5t-25.5 10.5zM296 8h-160v160
q0 15 -10.5 25.5t-25.5 10.5t-25.5 -10.5t-10.5 -25.5v-196q0 -15 10.5 -25.5t25.5 -10.5h196q15 0 25.5 10.5t10.5 25.5t-10.5 25.5t-25.5 10.5zM656 348h-288q-15 0 -25.5 10.5t-10.5 25.5t10.5 25.5t25.5 10.5h288q15 0 25.5 -10.5t10.5 -25.5t-10.5 -25.5t-25.5 -10.5z
" />
    <glyph glyph-name="sweep" unicode="&#xe7b8;" 
d="M512 896q-139 0 -257 -68.5t-186.5 -186.5t-68.5 -257t68.5 -257t186.5 -186.5t257 -68.5t257 68.5t186.5 186.5t68.5 257t-68.5 257t-186.5 186.5t-257 68.5zM208 652q0 15 10.5 25.5t25.5 10.5h115q15 0 25.5 -10.5t10.5 -25.5t-10.5 -25.5t-25.5 -10.5h-79v-79
q0 -15 -10.5 -25.5t-25.5 -10.5t-25.5 10.5t-10.5 25.5v115zM395 116q0 -15 -10.5 -25.5t-25.5 -10.5h-115q-15 0 -25.5 10.5t-10.5 25.5v115q0 15 10.5 25.5t25.5 10.5t25.5 -10.5t10.5 -25.5v-79h79q15 0 25.5 -10.5t10.5 -25.5zM418 348q-14 0 -25 10.5t-11 25.5t11 25.5
t25 10.5h188q15 0 25.5 -10.5t10.5 -25.5t-10.5 -25.5t-25.5 -10.5h-188zM816 116q0 -15 -10.5 -25.5t-25.5 -10.5h-115q-15 0 -25.5 10.5t-10.5 25.5t10.5 25.5t25.5 10.5h79v79q0 15 10.5 25.5t25.5 10.5t25.5 -10.5t10.5 -25.5v-115zM816 537q0 -15 -10.5 -25.5
t-25.5 -10.5t-25.5 10.5t-10.5 25.5v79h-79q-15 0 -25.5 10.5t-10.5 25.5t10.5 25.5t25.5 10.5h115q15 0 25.5 -10.5t10.5 -25.5v-115z" />
    <glyph glyph-name="like-o" unicode="&#xe7b9;" 
d="M512 -73q-49 0 -84 35l-335 336q-93 94 -93 225q0 132 93 225q92 93 223 93q110 0 196 -68q86 68 196 68q131 0 223 -93q93 -93 93 -224.5t-93 -225.5q-52 -52 -335 -336q-35 -35 -84 -35zM316 769q-101 0 -172 -71q-72 -73 -72 -175t72 -174l335 -336q14 -14 33 -14
t33 14q327 328 335 336v0q72 73 72 174.5t-72 174.5q-71 71 -172 71q-95 0 -165 -64l-7 -6l-24 -22l-31 28q-70 64 -165 64z" />
    <glyph glyph-name="like" unicode="&#xe7ba;" 
d="M931 748q-92 93 -223 93q-110 0 -196 -68q-86 68 -196 68q-131 0 -223 -93q-93 -93 -93 -225q0 -131 93 -224l335 -337q35 -35 84 -35t84 35q283 284 335 336q93 94 93 225q0 132 -93 225z" />
    <glyph glyph-name="time-b" unicode="&#xe7bb;" 
d="M927 559q-34 81 -96.5 143.5t-143.5 96.5q-83 35 -175 35t-175 -35q-81 -34 -143.5 -96.5t-96.5 -143.5q-35 -83 -35 -175t35 -175q34 -81 97 -143q62 -62 143 -97q84 -35 175 -35q92 0 175 35q81 34 143 97q62 62 97 143q35 84 35 175q0 92 -35 175zM716 352h-128
l36 -35q9 -10 9 -23t-9 -22t-22 -9t-23 9l-89 90q-10 9 -10 22t9.5 22.5t22.5 9.5h204q13 0 22.5 -9.5t9.5 -22.5t-9.5 -22.5t-22.5 -9.5z" />
    <glyph glyph-name="time-d" unicode="&#xe7bc;" 
d="M925 558q-34 81 -96 143t-143 96q-83 35 -174 35t-174 -35q-81 -34 -143 -96t-96 -143q-35 -83 -35 -174t35 -174q34 -81 96 -143t143 -96q83 -35 174 -35t174 35q81 34 143 96t96 143q35 83 35 174t-35 174zM639.5 256.5q-10.5 -10.5 -25.5 -10.5t-26 11l-91 91h-216
q-15 0 -25.5 10.5t-10.5 25.5t10.5 25.5t25.5 10.5h232q19 0 30 -16l96 -96q11 -11 11 -26t-10.5 -25.5z" />
    <glyph glyph-name="time-c" unicode="&#xe7bd;" 
d="M925 558q-34 81 -96 143t-143 96q-83 35 -174 35t-174 -35q-81 -34 -143 -96t-96 -143q-35 -83 -35 -174t35 -174q34 -81 96 -143t143 -96q83 -35 174 -35t174 35q81 34 143 96t96 143q35 83 35 174t-35 174zM639.5 256.5q-10.5 -10.5 -25.5 -10.5t-26 11l-40 40v-144
q0 -15 -10.5 -25.5t-25.5 -10.5t-25.5 10.5t-10.5 25.5v232q0 15 10.5 25.5t25.5 10.5q19 0 30 -16l97 -97q11 -11 11 -26t-10.5 -25.5z" />
    <glyph glyph-name="time-a" unicode="&#xe7be;" 
d="M925 558q-34 81 -96 143t-143 96q-83 35 -174 35t-174 -35q-81 -34 -143 -96t-96 -143q-35 -83 -35 -174t35 -174q34 -81 96 -143t143 -96q83 -35 174 -35t174 35q81 34 143 96t96 143q35 83 35 174t-35 174zM639.5 256.5q-10.5 -10.5 -25.5 -10.5t-26 11l-101 101
q-11 11 -11 26v232q0 15 10.5 25.5t25.5 10.5t25.5 -10.5t10.5 -25.5v-217l91 -91q11 -11 11 -26t-10.5 -25.5z" />
    <glyph glyph-name="time-o-c" unicode="&#xe7bf;" 
d="M925 558q-34 81 -96 143t-143 96q-83 35 -174 35t-174 -35q-81 -34 -143 -96t-96 -143q-35 -83 -35 -174t35 -174q34 -81 96 -143t143 -96q83 -35 174 -35t174 35q81 34 143 96t96 143q35 83 35 174t-35 174zM512 8q-155 0 -265.5 110.5t-110.5 265.5t110.5 265.5
t265.5 110.5t265.5 -110.5t110.5 -265.5t-110.5 -265.5t-265.5 -110.5zM542 405q-11 16 -30 16q-15 0 -25.5 -10.5t-10.5 -25.5v-232q0 -15 10.5 -25.5t25.5 -10.5t25.5 10.5t10.5 25.5v144l40 -40q11 -11 26 -11t25.5 10.5t10.5 25.5t-10 26z" />
    <glyph glyph-name="time-o-d" unicode="&#xe7c0;" 
d="M925 558q-34 81 -96 143t-143 96q-83 35 -174 35t-174 -35q-81 -34 -143 -96t-96 -143q-35 -83 -35 -174t35 -174q34 -81 96 -143t143 -96q83 -35 174 -35t174 35q81 34 143 96t96 143q35 83 35 174t-35 174zM512 8q-155 0 -265.5 110.5t-110.5 265.5t110.5 265.5
t265.5 110.5t265.5 -110.5t110.5 -265.5t-110.5 -265.5t-265.5 -110.5zM543 404q-11 16 -30 16h-232q-15 0 -25.5 -10.5t-10.5 -25.5t10.5 -25.5t25.5 -10.5h216l91 -91q11 -11 26 -11t25.5 10.5t10.5 25.5t-10 26z" />
    <glyph glyph-name="time-o-a" unicode="&#xe7c1;" 
d="M925 558q-34 81 -96 143t-143 96q-83 35 -174 35t-174 -35q-81 -34 -143 -96t-96 -143q-35 -83 -35 -174t35 -174q34 -81 96 -143t143 -96q83 -35 174 -35t174 35q81 34 143 96t96 143q35 83 35 174t-35 174zM512 8q-155 0 -265.5 110.5t-110.5 265.5t110.5 265.5
t265.5 110.5t265.5 -110.5t110.5 -265.5t-110.5 -265.5t-265.5 -110.5zM548 399v217q0 15 -10.5 25.5t-25.5 10.5t-25.5 -10.5t-10.5 -25.5v-232q0 -15 11 -26l101 -101q11 -11 26 -11t25.5 10.5t10.5 25.5t-11 26z" />
    <glyph glyph-name="time-o-b" unicode="&#xe7c2;" 
d="M925 558q-34 81 -96 143t-143 96q-83 35 -174 35t-174 -35q-81 -34 -143 -96t-96 -143q-35 -83 -35 -174t35 -174q34 -81 96 -143t143 -96q83 -35 174 -35t174 35q81 34 143 96t96 143q35 83 35 174t-35 174zM512 8q-155 0 -265.5 110.5t-110.5 265.5t110.5 265.5
t265.5 110.5t265.5 -110.5t110.5 -265.5t-110.5 -265.5t-265.5 -110.5zM744 420h-232q-15 0 -25.5 -10.5t-10.5 -25.5t11 -26l101 -101q11 -11 26 -11t25.5 10.5t10.5 25.5t-11 26l-40 40h145q15 0 25.5 10.5t10.5 25.5t-10.5 25.5t-25.5 10.5z" />
    <glyph glyph-name="hide-code-o" unicode="&#xe7c3;" 
d="M184 210l52 52q-20 12 -38 25q-61 44 -113 97q53 53 113 97q41 29 81 51q-43 -67 -43 -148q0 -54 20 -103l57 58q-5 22 -5 45q0 84 60 144t144 60q23 0 45 -5l72 72q-59 15 -117 15q-97 0 -199 -42q-80 -33 -159 -90q-83 -61 -145 -131q-9 -10 -9 -23t9 -23
q56 -66 145 -131q14 -10 30 -20zM1015 407q-55 66 -145 131q-47 34 -94 59l84 84q11 11 11 25.5t-11 25t-25.5 10.5t-25.5 -10l-102 -102h-1l-78 -78l0.5 -0.5l0.5 -0.5l-284 -283h-0.5h-0.5l-97 -97h0.5h0.5l-84 -84q-11 -11 -11 -25.5t11 -25t25.5 -10.5t25.5 10l102 102
q100 -40 195 -40q97 0 199 42q80 33 159 90q90 65 145 131q9 10 9 23t-9 23zM512 180q-64 0 -116 37l283 283q37 -52 37 -116q0 -84 -60 -144t-144 -60zM826 287q-41 -29 -81 -51q43 67 43 148t-43 148q41 -22 81 -51q60 -44 113 -97q-52 -53 -113 -97z" />
    <glyph glyph-name="display-code" unicode="&#xe7c4;" 
d="M1015 407q-55 66 -145 131q-79 57 -159 90q-102 42 -199 42t-199 -42q-80 -33 -159 -90q-83 -61 -145 -131q-9 -10 -9 -23t9 -23q56 -66 145 -131q79 -57 159 -90q102 -42 199 -42t199 42q80 33 159 90q90 65 145 131q9 10 9 23t-9 23zM512 180q-84 0 -144 60t-60 144
t60 144t144 60t144 -60t60 -144t-60 -144t-144 -60zM85 384q53 53 113 97q41 29 81 51q-43 -67 -43 -148t43 -148q-41 22 -81 51q-61 44 -113 97zM826 287q-41 -29 -81 -51q43 67 43 148t-43 148q41 -22 81 -51q60 -44 113 -97q-52 -53 -113 -97z" />
    <glyph glyph-name="search-o" unicode="&#xe7c7;" 
d="M950 -2l-206 206q36 43 58 95q30 71 30 149t-30 150q-29 69 -82.5 122t-121.5 82q-72 30 -150 30t-150 -30q-68 -29 -121.5 -82.5t-82.5 -121.5q-30 -72 -30 -150t30 -150q29 -68 82.5 -121.5t121.5 -82.5q72 -30 150 -30t150 30q52 22 95 59l206 -206q11 -11 25.5 -11
t25.5 11q10 11 10 25.5t-10 25.5zM448 136q-129 0 -220.5 91.5t-91.5 220.5t91.5 220.5t220.5 91.5t220.5 -91.5t91.5 -220.5t-91.5 -220.5t-220.5 -91.5z" />
    <glyph glyph-name="search" unicode="&#xe7c8;" 
d="M479 560q-59 0 -101 -42t-42 -101t42 -101t101 -42t101 42t42 101t-42 101t-101 42zM512 896q-139 0 -257 -68.5t-186.5 -186.5t-68.5 -257t68.5 -257t186.5 -186.5t257 -68.5t257 68.5t186.5 186.5t68.5 257t-68.5 257t-186.5 186.5t-257 68.5zM749.5 146.5
q-10.5 -10.5 -25.5 -10.5t-26 11l-94 95q-56 -40 -125 -40q-89 0 -152 63t-63 152t63 152t152 63t152 -63t63 -152q0 -69 -40 -124l95 -95q11 -11 11 -26t-10.5 -25.5z" />
    <glyph glyph-name="refund-o" unicode="&#xe7c9;" 
d="M663 423q16 0 27.5 11t11.5 27t-11.5 27t-27.5 11h-62l23 64q5 15 -2 29.5t-22 19.5t-29.5 -1.5t-19.5 -21.5l-31 -90h-16l-31 90q-5 15 -19.5 21.5t-29.5 1.5t-22 -19.5t-1 -29.5l22 -64h-62q-16 0 -27.5 -11t-11.5 -27t11.5 -27t27.5 -11h113v-66h-113
q-16 0 -27.5 -11.5t-11.5 -27.5t11.5 -27t27.5 -11h113v-88q0 -16 11 -27t27 -11t27 11t11 27v88h113q16 0 27.5 11t11.5 27t-11.5 27.5t-27.5 11.5h-113v65h113v1zM987 316q0 16 -11 27t-27 11h-3q-14 0 -25 -9t-13 -23q-23 -148 -135 -243.5t-261 -95.5
q-109 0 -201.5 53.5t-146 146t-53.5 201.5t53.5 201.5t146 146t201.5 53.5q131 0 236 -76t145 -201q5 -15 19.5 -22t29.5 -2t22 19t2 29q-23 72 -67 133q-44 60 -104 104q-126 93 -283 93q-97 0 -186 -38q-86 -36 -152 -102t-102 -152q-38 -89 -38 -186t38 -186
q36 -86 102 -152t152 -102q89 -38 186 -38q88 0 169 31q79 30 143 85q50 44 86 98q0 -16 11.5 -27t27.5 -11t27 11.5t11 26.5v196z" />
    <glyph glyph-name="about-o" unicode="&#xe7ca;" 
d="M984 583q-39 92 -110 163t-163 110q-95 40 -199 40t-199 -40q-92 -39 -163 -110t-110 -163q-40 -95 -40 -199t40 -199q39 -92 110 -163t163 -110q95 -40 199 -40t199 40q92 39 163 110t110 163q40 95 40 199t-40 199zM512 -56q-182 0 -311 129t-129 311t129 311t311 129
t311 -129t129 -311t-129 -311t-311 -129zM543 586q-10 18 -31 18t-31 -18l-212 -368q-8 -12 -4 -26.5t17 -22t27.5 -3.5t21.5 16l75 130h212l75 -130q10 -18 31 -18q9 0 18 5q13 8 17 22.5t-4 26.5zM448 384l64 112l64 -112h-128z" />
    <glyph glyph-name="about" unicode="&#xe7cb;" 
d="M984 583q-39 92 -110 163t-163 110q-95 40 -199 40t-199 -40q-92 -39 -163 -110t-110 -163q-40 -95 -40 -199t40 -199q39 -92 110 -163t163 -110q95 -40 199 -40t199 40q92 39 163 110t110 163q40 95 40 199t-40 199zM742 169q-8 -5 -18 -5q-21 0 -31 18l-75 130h-212
l-75 -130q-7 -12 -21.5 -16t-27.5 3.5t-17 22t4 26.5l212 368q10 18 31 18t31 -18l212 -368q8 -12 4 -26.5t-17 -22.5zM448 384h128l-64 112z" />
    <glyph glyph-name="service" unicode="&#xe7cc;" 
d="M736 528q52 52 52 126t-52 126t-125 52q-54 0 -99 -30q-45 30 -99 30q-73 0 -125 -52t-52 -126t52 -126l169 -169q23 -23 55 -23t55 23zM136 558q0 15 -10.5 25.5t-25.5 10.5t-25.5 -10.5t-10.5 -25.5q0 -81 28.5 -157t81.5 -137q97 -111 240 -143v-149q0 -15 10.5 -25.5
t25.5 -10.5t25.5 10.5t10.5 25.5v210l-30 4q-137 21 -228.5 127.5t-91.5 244.5zM924 594q-15 0 -25.5 -10.5t-10.5 -25.5q0 -138 -91.5 -244.5t-228.5 -127.5l-30 -4v-210q0 -15 10.5 -25.5t25.5 -10.5t25.5 10.5t10.5 25.5v149q144 32 241 143q52 61 80.5 137t28.5 157
q0 15 -10.5 25.5t-25.5 10.5z" />
    <glyph glyph-name="service-o" unicode="&#xe7cd;" 
d="M512 336q-32 0 -55 23l-169 169q-52 52 -52 126t52 126t125 52q54 0 99 -30q45 30 99 30q73 0 125 -52t52 -125.5t-52 -126.5q-15 -14 -169 -169q-23 -23 -55 -23zM413 760q-43 0 -74 -31t-31 -75t31 -75l169 -169q2 -2 4 -2t4 2q163 164 168 169h1q31 31 31 75t-31 75
t-74 31q-41 0 -72 -28l-3 -3l-24 -21l-28 24q-30 28 -71 28zM450 -64q-15 0 -25.5 10.5t-10.5 25.5v149q-143 32 -240 143q-53 61 -81.5 137t-28.5 157q0 15 10.5 25.5t25.5 10.5t25.5 -10.5t10.5 -25.5q0 -138 91.5 -244.5t228.5 -127.5l30 -4v-210q0 -15 -10.5 -25.5
t-25.5 -10.5zM574 -64q-15 0 -25.5 10.5t-10.5 25.5v210l30 4q137 21 228.5 127.5t91.5 244.5q0 15 10.5 25.5t25.5 10.5t25.5 -10.5t10.5 -25.5q0 -81 -28.5 -157t-81.5 -137q-97 -111 -240 -143v-149q0 -15 -10.5 -25.5t-25.5 -10.5z" />
    <glyph glyph-name="edit-" unicode="&#xe7ce;" 
d="M924 -64h-824q-15 0 -25.5 10.5t-10.5 25.5v824q0 15 10.5 25.5t25.5 10.5h411q16 0 26.5 -11t10.5 -26q0 -14 -10.5 -24.5t-25.5 -10.5h-376v-752h752v376q0 15 11 26t26 10q14 0 24.5 -10.5t10.5 -25.5v-412q0 -15 -10.5 -25.5t-25.5 -10.5zM512 348q-15 0 -25.5 10.5
t-10.5 25.5t10 25l413 413q11 10 25.5 10t25 -10.5t10.5 -25t-10 -25.5l-412 -413q-11 -10 -26 -10z" />
    <glyph glyph-name="forward-o" unicode="&#xe7cf;" 
d="M267 -64q-17 0 -28 13q-9 11 -8 26t13 25l458 384l-458 384q-12 10 -13 25t8.5 26.5t24 12.5t26.5 -8l490 -412q11 -9 13 -22v0q3 -21 -12 -34l-491 -412q-10 -8 -23 -8z" />
    <glyph glyph-name="back-o" unicode="&#xe7d0;" 
d="M757 -64q-13 0 -23 8l-490 412q-16 13 -13 34v0q2 13 13 22l490 412q12 9 26.5 8t24 -12.5t8.5 -26.5t-13 -25l-458 -384l458 -384q12 -10 13 -25t-8 -26q-11 -13 -28 -13z" />
    <glyph glyph-name="file-o" unicode="&#xe7d1;" 
d="M443 896q-11 0 -21 -7v0q0 -1 -1 -1v-1v0h-0.5h-0.5l-1 -1v-1v0l-280 -284h-1v0q0 -1 -0.5 -1h-0.5v-1h-1v-1l-0.5 -0.5l-0.5 -0.5v0l-0.5 -0.5l-0.5 -0.5v0q0 -1 -1 -2v0l-0.5 -0.5l-0.5 -0.5v0q-2 -5 -3 -10v-0.5v-1.5v0q-1 0 -1 -0.5v-1.5v0v-0.5v-0.5v-670
q0 -15 10.5 -25.5t25.5 -10.5h696q15 0 25.5 10.5t10.5 25.5v952q0 15 -10.5 25.5t-25.5 10.5h-417zM250 612l158 160v-160h-158zM824 -56h-624v596h243q15 0 26 10t11 25v249h344v-880z" />
    <glyph glyph-name="file" unicode="&#xe7d2;" 
d="M418 885l-280 -284q-10 -10 -10 -25v-668q0 -15 10.5 -25.5t25.5 -10.5h696q15 0 25.5 10.5t10.5 25.5v952q0 15 -10.5 25.5t-25.5 10.5h-416q-15 0 -26 -11zM444 612q0 -15 -11 -25.5t-25 -10.5h-192l227 231z" />
    <glyph glyph-name="share" unicode="&#xe7d3;" 
d="M512 896q-139 0 -257 -68.5t-186.5 -186.5t-68.5 -257t68.5 -257t186.5 -186.5t257 -68.5t257 68.5t186.5 186.5t68.5 257t-68.5 257t-186.5 186.5t-257 68.5zM405 360v-14l204 -102q32 30 76 30q45 0 77 -31.5t32 -77t-32 -77t-77 -31.5t-77 31.5t-32 77.5q0 7 1 13
l-205 103q-31 -31 -75 -31q-45 0 -77 32t-32 77t32 76.5t77 31.5q44 0 75 -30l205 103q-1 7 -1 14q0 45 32 76.5t77 31.5t77 -31.5t32 -76.5t-32 -77t-77 -32q-44 0 -75 30l-205 -103v-13z" />
    <glyph glyph-name="share-o" unicode="&#xe7d4;" 
d="M797 209q-49 0 -81 -37l-499 206v6v6l499 206q32 -36 81 -36q45 0 76.5 32t31.5 77t-31.5 77t-76.5 32t-77 -32t-32 -77v-6l-498 -207q-33 37 -81 37q-45 0 -77 -32t-32 -77t32 -77t77 -32q48 0 81 37l498 -206v-6q0 -45 32 -77t77 -32t76.5 32t31.5 77t-31.5 77
t-76.5 32z" />
    <glyph glyph-name="ban-o" unicode="&#xe7d5;" 
d="M984 583q-39 92 -110 163t-163 110q-95 40 -199 40t-199 -40q-92 -39 -163 -110t-110 -163q-40 -95 -40 -199t40 -199q39 -92 110 -163t163 -110q95 -40 199 -40t199 40q92 39 163 110t110 163q40 95 40 199t-40 199zM512 824q161 0 284 -105l-619 -619
q-105 123 -105 284q0 182 129 311t311 129zM512 -56q-161 0 -284 105l619 619q105 -123 105 -284q0 -182 -129 -311t-311 -129z" />
    <glyph glyph-name="share-b-o" unicode="&#xe7d6;" 
d="M960 -64h-896v896h254q15 0 25.5 -10.5t10.5 -25.5t-10.5 -25.5t-25.5 -10.5h-182v-752h752v183q0 15 10.5 25.5t25.5 10.5t25.5 -10.5t10.5 -25.5v-255zM342 162q-12 0 -22 7.5t-13 19.5q-20 84 -7.5 168.5t55.5 158.5q46 79 118 133q70 53 154 76q75 20 152 14l-40 32
q-12 9 -13.5 24t7.5 26.5t24 13t26 -7.5l189 -150q11 -9 13 -23t-6 -25.5t-22 -14.5t-26 4q-135 78 -285 37q-73 -19 -132 -64.5t-96 -110.5q-75 -129 -41 -274q4 -15 -4 -27.5t-23 -16.5q-4 -1 -8 0z" />
    <glyph glyph-name="clean" unicode="&#xe7d7;" 
d="M322 720h380q15 0 25.5 10.5t10.5 25.5t-10.5 25.5t-25.5 10.5h-380q-15 0 -25.5 -10.5t-10.5 -25.5t10.5 -25.5t25.5 -10.5zM924 629h-823q-16 0 -26.5 -10.5t-10.5 -25.5t10.5 -25.5t25.5 -10.5h149v-585q0 -15 10.5 -25.5t25.5 -10.5h454q15 0 25.5 10.5t10.5 25.5
v585h148q15 0 26 11t11 26t-10.5 25t-25.5 10zM471 214q0 -15 -10.5 -25.5t-25.5 -10.5t-25.5 10.5t-10.5 25.5v343h72v-343zM625 214q0 -15 -10.5 -25.5t-25.5 -10.5t-25.5 10.5t-10.5 25.5v343h72v-343z" />
    <glyph glyph-name="clean-o" unicode="&#xe7d8;" 
d="M924 629h-823q-16 0 -26.5 -10.5t-10.5 -25.5t10.5 -25.5t25.5 -10.5h149v-585q0 -15 10.5 -25.5t25.5 -10.5h454q15 0 25.5 10.5t10.5 25.5v585h148q15 0 26 11t11 26t-10.5 25t-25.5 10zM703 8h-382v549h78v-343q0 -15 10.5 -25.5t25.5 -10.5t25.5 10.5t10.5 25.5v343
h82v-343q0 -15 10.5 -25.5t25.5 -10.5t25.5 10.5t10.5 25.5v343h78v-549v0zM322 720h380q15 0 25.5 10.5t10.5 25.5t-10.5 25.5t-25.5 10.5h-380q-15 0 -25.5 -10.5t-10.5 -25.5t10.5 -25.5t25.5 -10.5z" />
    <glyph glyph-name="return-o" unicode="&#xe7d9;" 
d="M930 534q-29 68 -82.5 121.5t-121.5 82.5q-72 30 -150 30h-335l28 30q10 10 9.5 25t-11 25.5t-25.5 10t-25 -11.5l-113 -117l118 -114q11 -10 25 -10q15 0 26 11q10 10 10 25t-11 26l-29 28h333q129 0 220.5 -91.5t91.5 -220.5t-91.5 -220.5t-220.5 -91.5h-472
q-15 0 -25.5 -10.5t-10.5 -25.5t10.5 -25.5t25.5 -10.5h472q78 0 150 30q68 29 121.5 82.5t82.5 121.5q30 72 30 150t-30 150z" />
    <glyph glyph-name="lock" unicode="&#xe7da;" 
d="M824 508h-99v111q0 88 -62.5 150.5t-150.5 62.5t-150.5 -62.5t-62.5 -150.5v-111h-99q-30 0 -51 -21t-21 -51v-428q0 -30 21 -51t51 -21h624q30 0 51 21t21 51v428q0 30 -21 51t-51 21zM548 151q0 -15 -10.5 -25.5t-25.5 -10.5t-25.5 10.5t-10.5 25.5v144q0 15 10.5 25.5
t25.5 10.5t25.5 -10.5t10.5 -25.5v-144zM653 508h-282v111q0 58 41.5 99.5t99.5 41.5t99.5 -41.5t41.5 -99.5v-111z" />
    <glyph glyph-name="lock-o" unicode="&#xe7db;" 
d="M824 508h-99v111q0 88 -62.5 150.5t-150.5 62.5t-150.5 -62.5t-62.5 -150.5v-111h-99q-30 0 -51 -21t-21 -51v-428q0 -30 21 -51t51 -21h624q30 0 51 21t21 51v428q0 30 -21 51t-51 21zM371 619q0 58 41.5 99.5t99.5 41.5t99.5 -41.5t41.5 -99.5v-111h-282v111zM824 8
h-624v428h624v-428zM512 331q-15 0 -25.5 -10.5t-10.5 -25.5v-144q0 -15 10.5 -25.5t25.5 -10.5t25.5 10.5t10.5 25.5v144q0 15 -10.5 25.5t-25.5 10.5z" />
    <glyph glyph-name="unlock-o" unicode="&#xe7dc;" 
d="M824 508h-453v111q0 58 41.5 99.5t99.5 41.5t99.5 -41.5t41.5 -99.5q0 -15 10.5 -25.5t25.5 -10.5t25.5 10.5t10.5 25.5q0 88 -62.5 150.5t-150.5 62.5t-150.5 -62.5t-62.5 -150.5v-111h-99q-30 0 -51 -21t-21 -51v-428q0 -30 21 -51t51 -21h624q30 0 51 21t21 51v428
q0 30 -21 51t-51 21zM824 8h-624v428h624v-428zM512 331q-15 0 -25.5 -10.5t-10.5 -25.5v-144q0 -15 10.5 -25.5t25.5 -10.5t25.5 10.5t10.5 25.5v144q0 15 -10.5 25.5t-25.5 10.5z" />
    <glyph glyph-name="unlock" unicode="&#xe7dd;" 
d="M824 508h-453v111q0 58 41.5 99.5t99.5 41.5t99.5 -41.5t41.5 -99.5q0 -15 10.5 -25.5t25.5 -10.5t25.5 10.5t10.5 25.5q0 88 -62.5 150.5t-150.5 62.5t-150.5 -62.5t-62.5 -150.5v-111h-99q-30 0 -51 -21t-21 -51v-428q0 -30 21 -51t51 -21h624q30 0 51 21t21 51v428
q0 30 -21 51t-51 21zM548 151q0 -15 -10.5 -25.5t-25.5 -10.5t-25.5 10.5t-10.5 25.5v144q0 15 10.5 25.5t25.5 10.5t25.5 -10.5t10.5 -25.5v-144z" />
    <glyph glyph-name="QRcode-o" unicode="&#xe7de;" 
d="M412 484h-348v276q0 30 21 51t51 21h276v-348zM136 556h204v204h-204v-204zM376 -64h-150q-15 0 -25.5 10.5t-10.5 25.5t10.5 25.5t25.5 10.5h150q15 0 25.5 -10.5t10.5 -25.5t-10.5 -25.5t-25.5 -10.5zM100 72q-15 0 -25.5 10.5t-10.5 25.5v140q0 15 10.5 25.5
t25.5 10.5t25.5 -10.5t10.5 -25.5v-140q0 -15 -10.5 -25.5t-25.5 -10.5zM960 484h-348v348h276q30 0 51 -21t21 -51v-276zM684 556h204v204h-204v-204zM888 -64h-276v348h348v-276q0 -30 -21 -51t-51 -21zM684 8h204v204h-204v-204zM341 92h-85q-15 0 -25.5 10.5t-10.5 25.5
v85q0 15 10.5 25.5t25.5 10.5h121v-121q0 -15 -10.5 -25.5t-25.5 -10.5zM512 -64q-15 0 -25.5 10.5t-10.5 25.5v292q0 15 10.5 25.5t25.5 10.5t25.5 -10.5t10.5 -25.5v-292q0 -15 -10.5 -25.5t-25.5 -10.5zM512 478q-15 0 -25.5 11t-10.5 25v282q0 15 10.5 25.5t25.5 10.5
t25.5 -10.5t10.5 -25.5v-282q0 -14 -10.5 -25t-25.5 -11zM924 348h-824q-15 0 -25.5 10.5t-10.5 25.5t10.5 25.5t25.5 10.5h824q15 0 25.5 -10.5t10.5 -25.5t-10.5 -25.5t-25.5 -10.5z" />
    <glyph glyph-name="bank-card-o" unicode="&#xe7df;" 
d="M952 0h-880q-30 0 -51 21t-21 51v624q0 30 21 51t51 21h880q30 0 51 -21t21 -51v-624q0 -30 -21 -51t-51 -21zM72 696v-624h880v624h-880zM546 478h-380q-15 0 -25.5 10.5t-10.5 25.5t10.5 25.5t25.5 10.5h380q15 0 25.5 -10.5t10.5 -25.5t-10.5 -25.5t-25.5 -10.5z
M858 223h-692q-15 0 -25.5 10.5t-10.5 25.5t10.5 25.5t25.5 10.5h692q15 0 25.5 -10.5t10.5 -25.5t-10.5 -25.5t-25.5 -10.5z" />
    <glyph glyph-name="bank-card" unicode="&#xe7e0;" 
d="M952 768h-880q-30 0 -51 -21t-21 -51v-624q0 -30 21 -51t51 -21h880q30 0 51 21t21 51v624q0 30 -21 51t-51 21zM166 550h380q15 0 25.5 -10.5t10.5 -25.5t-10.5 -25.5t-25.5 -10.5h-380q-15 0 -25.5 10.5t-10.5 25.5t10.5 25.5t25.5 10.5zM858 223h-692
q-15 0 -25.5 10.5t-10.5 25.5t10.5 25.5t25.5 10.5h692q15 0 25.5 -10.5t10.5 -25.5t-10.5 -25.5t-25.5 -10.5z" />
    <glyph glyph-name="return-top-o" unicode="&#xe7e1;" 
d="M888 832h-752q-30 0 -51 -21t-21 -51v-752q0 -30 21 -51t51 -21h752q30 0 51 21t21 51v752q0 30 -21 51t-51 21zM888 8h-752v752h752v-752zM688 611h-352q-15 0 -25.5 -10.5t-10.5 -25.5t10.5 -25.5t25.5 -10.5h352q15 0 25.5 10.5t10.5 25.5t-10.5 25.5t-25.5 10.5z
M512 538l-190 -190q-10 -10 -10 -25t10.5 -25.5t25.5 -10.5t25 11l103 102v-273q0 -15 10.5 -25.5t25.5 -10.5t25.5 10.5t10.5 25.5v273l103 -102q10 -11 25 -11t25.5 10.5t10.5 25.5t-10 25z" />
    <glyph glyph-name="return-top" unicode="&#xe7e2;" 
d="M888 832h-752q-30 0 -51 -21t-21 -51v-752q0 -30 21 -51t51 -21h752q30 0 51 21t21 51v752q0 30 -21 51t-51 21zM701.5 297.5q-10.5 -10.5 -25.5 -10.5t-26 11l-102 102v-273q0 -15 -10.5 -25.5t-25.5 -10.5t-25.5 10.5t-10.5 25.5v273l-103 -102q-10 -11 -25 -11
t-25.5 10.5t-10.5 25.5t10 25l190 190l190 -190q10 -10 10 -25t-10.5 -25.5zM688 539h-352q-15 0 -25.5 10.5t-10.5 25.5t10.5 25.5t25.5 10.5h352q15 0 25.5 -10.5t10.5 -25.5t-10.5 -25.5t-25.5 -10.5z" />
    <glyph glyph-name="return-top-b-o" unicode="&#xe7e3;" 
d="M886 832h-748q-15 0 -25.5 -10.5t-10.5 -25.5t10.5 -25.5t25.5 -10.5h748q15 0 25.5 10.5t10.5 25.5t-10.5 25.5t-25.5 10.5zM512 760l-374 -374q-11 -11 -11 -25.5t11 -25t25.5 -10.5t25.5 10l287 287v-648q0 -15 10.5 -25.5t25.5 -10.5t25.5 10.5t10.5 25.5v648
l287 -287q11 -11 26 -11t25.5 11t10.5 25.5t-11 25.5z" />
    <glyph glyph-name="group-o" unicode="&#xe7e4;" 
d="M717 172q-111 78 -267 78q-157 0 -268 -78q-55 -38 -85 -88q-33 -54 -33 -114v-36h771v36q0 60 -33 114q-30 50 -85 88zM141 6q16 61 82 107q93 65 226.5 65t226.5 -65q66 -46 82 -107h-617zM447.5 324q56.5 0 95.5 55t39 134.5t-39 134t-95.5 54.5t-95 -54.5t-38.5 -134
t38.5 -134.5t95 -55zM408 602q19 28 40 28t39 -28q23 -36 23 -88.5t-23 -88.5q-18 -28 -39 -28t-40 28q-23 36 -23 88q0 53 23 89zM927 214q-30 50 -85 88q-91 64 -216 76q-13 -29 -30 -53q-7 -8 -14 -17q129 -2 219 -65q66 -46 82 -107h-51q22 -30 38 -63q2 -5 4 -9h86v36
q0 60 -33 114zM544 745q14 15 29 15q21 0 39 -28q23 -36 23 -89q0 -11 -1 -23q18 -52 18 -111q0 -10 -1 -20q56 56 56 154q0 80 -39 134.5t-95 54.5q-59 0 -98 -58q29 -5 56 -21q6 -3 13 -8z" />
    <glyph glyph-name="group" unicode="&#xe7e5;" 
d="M717 172q-111 78 -267 78q-157 0 -268 -78q-55 -38 -85 -88q-33 -54 -33 -114v-36h771v36q0 60 -33 114q-30 50 -85 88zM447.5 324q56.5 0 95.5 55t39 134.5t-39 134t-95.5 54.5t-95 -54.5t-38.5 -134t38.5 -134.5t95 -55zM927 214q-30 50 -85 88q-91 64 -216 76
q-13 -29 -30 -53q-9 -12 -20 -23q24 -6 49 -15q82 -30 146 -86q64 -55 99 -128q2 -5 4 -9h86v36q0 60 -33 114zM596 694q56 -77 56 -184q0 -11 -1 -21q56 56 56 154q0 80 -39 134.5t-95 54.5q-59 0 -98 -58q29 -5 56 -21q37 -21 65 -59z" />
    <glyph glyph-name="cut-o" unicode="&#xe7e6;" 
d="M856 135h-60v534q0 15 -10.5 25.5t-25.5 10.5h-460v89q0 16 -11 26.5t-26 10.5q-14 0 -24.5 -10.5t-10.5 -25.5v-90h-63q-16 0 -26.5 -11t-10.5 -26q0 -14 10.5 -24.5t25.5 -10.5h64v-534q0 -15 10.5 -25.5t25.5 -10.5h460v-89q0 -16 11 -26.5t26 -10.5q14 0 24.5 10.5
t10.5 25.5v90h61q15 0 25.5 10.5t10.5 24.5q0 15 -10.5 26t-26.5 11zM300 135v498h424v-498h-424z" />
    <glyph glyph-name="zoom-in-o" unicode="&#xe7e7;" 
d="M692 832q-15 0 -25.5 -10.5t-10.5 -25.5t10.5 -25.5t25.5 -10.5h145l-193 -193q-11 -11 -11 -26t10.5 -25t25.5 -10t26 10l193 193v-145q0 -15 10.5 -25.5t25.5 -10.5t25.5 10.5t10.5 25.5v268h-268zM329 252l-193 -193v145q0 15 -10.5 25.5t-25.5 10.5t-25.5 -10.5
t-10.5 -25.5v-268h268q15 0 25.5 10.5t10.5 25.5t-10.5 25.5t-25.5 10.5h-145l193 193q11 11 11 26t-10.5 25.5t-25.5 10.5t-26 -11z" />
    <glyph glyph-name="zoom-out-o" unicode="&#xe7e8;" 
d="M87 227q0 -15 10.5 -25.5t25.5 -10.5h145l-194 -193q-10 -11 -10 -26t10.5 -25.5t25.5 -10.5t26 11l193 193v-145q0 -15 10.5 -25.5t25.5 -10.5t25.5 10.5t10.5 25.5v268h-268q-15 0 -25.5 -10.5t-10.5 -25.5zM949.5 821.5q-10.5 10.5 -25.5 10.5t-25 -10l-194 -194v145
q0 15 -10.5 25.5t-25.5 10.5t-25.5 -10.5t-10.5 -25.5v-268h268q15 0 25.5 10.5t10.5 25.5t-10.5 25.5t-25.5 10.5h-145l193 193q11 11 11 26t-10.5 25.5z" />
    <glyph glyph-name="zoom-in" unicode="&#xe7e9;" 
d="M924 832h-824q-15 0 -25.5 -10.5t-10.5 -25.5v-824q0 -15 10.5 -25.5t25.5 -10.5h824q15 0 25.5 10.5t10.5 25.5v824q0 15 -10.5 25.5t-25.5 10.5zM432 36h-268v268q0 15 10.5 25.5t25.5 10.5t25.5 -10.5t10.5 -25.5v-145l116 116q11 11 25.5 11t25.5 -11t11 -25.5
t-11 -25.5l-116 -116h145q15 0 25.5 -10.5t10.5 -25.5t-10.5 -25.5t-25.5 -10.5zM860 464q0 -15 -10.5 -25.5t-25.5 -10.5t-25.5 10.5t-10.5 25.5v145l-116 -116q-11 -11 -25.5 -11t-25.5 11t-11 25.5t11 25.5l116 116h-145q-15 0 -25.5 10.5t-10.5 25.5t10.5 25.5
t25.5 10.5h268v-268z" />
    <glyph glyph-name="zoom-out" unicode="&#xe7ea;" 
d="M924 832h-824q-15 0 -25.5 -10.5t-10.5 -25.5v-824q0 -15 10.5 -25.5t25.5 -10.5h824q15 0 25.5 10.5t10.5 25.5v824q0 15 -10.5 25.5t-25.5 10.5zM468 72q0 -15 -10.5 -25.5t-25.5 -10.5t-25.5 10.5t-10.5 25.5v145l-116 -116q-11 -11 -26 -11t-25 11q-11 11 -11 25.5
t11 25.5l116 116h-145q-15 0 -25.5 10.5t-10.5 25.5t10.5 25.5t25.5 10.5h268v-268zM824 428h-268v268q0 15 10.5 25.5t25.5 10.5t25.5 -10.5t10.5 -25.5v-145l116 116q11 11 26 11t25.5 -11t10.5 -25.5t-11 -25.5l-116 -116h145q15 0 25.5 -10.5t10.5 -25.5t-10.5 -25.5
t-25.5 -10.5z" />
    <glyph glyph-name="telephone-o" unicode="&#xe7eb;" 
d="M644 -64q-80 0 -154 30q-77 31 -135 90l-171 170q-59 59 -90 136q-30 74 -30 154t30 154q31 76 90 135l4 5q27 27 65 21.5t56 -39.5q44 -81 100 -159q17 -23 14.5 -51t-22.5 -47l-23 -23q-41 -41 -41 -99.5t41 -100.5l62 -61q42 -42 100.5 -42t99.5 42l23 22q19 20 47 22
t51 -14q78 -56 159 -100q34 -18 39.5 -56t-21.5 -64l-5 -5q-59 -59 -135 -90q-74 -30 -154 -30zM242 760q-2 0 -3 -1l-4 -5q-99 -99 -99 -238.5t99 -237.5l171 -171q64 -65 151 -88t174 0t151 88l5 4q1 2 1 4t-2 3q-86 46 -167 105q-3 2 -5 0l-23 -23q-63 -63 -151 -63
t-151 63l-61 61q-63 63 -63 151t63 151l22 23q3 2 1 5q-59 81 -105 167q-1 2 -3 2h-1z" />
    <glyph glyph-name="telephone" unicode="&#xe7ec;" 
d="M740 252q79 -57 163 -103q18 -9 20.5 -29t-11.5 -34l-4 -5q-72 -71 -168 -96.5t-192 0t-168 96.5l-171 171q-71 72 -96.5 168t0 192t96.5 168l5 4q14 15 34 12t29 -21q46 -84 103 -163q9 -12 7.5 -26.5t-11.5 -25.5l-23 -22q-52 -52 -52 -125.5t52 -125.5l62 -62
q52 -52 125.5 -52t124.5 52l23 23q11 10 25.5 11.5t26.5 -7.5z" />
    <glyph glyph-name="telephone-b" unicode="&#xe7ed;" 
d="M984 583q-39 92 -110 163t-163 110q-95 40 -199 40t-199 -40q-92 -39 -163 -110t-110 -163q-40 -95 -40 -199t40 -199q39 -92 110 -163t163 -110q95 -40 199 -40t199 40q92 39 163 110t110 163q40 95 40 199t-40 199zM717 230l-55 -54q-73 -12 -144.5 11t-125.5 77
t-77 125.5t-11 144.5l54 55q7 7 17 7t17 -7l86 -86q7 -7 7 -17t-7 -17l-57 -57v-1q0 -49 35 -83q35 -36 84 -35v0l58 57q6 7 16 7t17 -7l86 -86q7 -7 7 -17t-7 -17z" />
    <glyph glyph-name="telephone-b-o" unicode="&#xe7ee;" 
d="M631 350q-7 7 -17 7t-16 -7l-58 -57v0q-50 -1 -85 35q-34 34 -34 83v1l57 57q7 7 7 17t-7 17l-86 86q-7 7 -17 7t-17 -7l-54 -55q-12 -73 11 -144.5t77 -125.5t125.5 -77t144.5 -11l55 54q7 7 7 17t-7 17zM984 583q-39 92 -110 163t-163 110q-95 40 -199 40t-199 -40
q-92 -39 -163 -110t-110 -163q-40 -95 -40 -199t40 -199q39 -92 110 -163t163 -110q95 -40 199 -40t199 40q92 39 163 110t110 163q40 95 40 199t-40 199zM512 -56q-182 0 -311 129t-129 311t129 311t311 129t311 -129t129 -311t-129 -311t-311 -129z" />
    <glyph glyph-name="map" unicode="&#xe7ef;" 
d="M984 583q-39 92 -110 163t-163 110q-95 40 -199 40t-199 -40q-92 -39 -163 -110t-110 -163q-40 -95 -40 -199t40 -199q39 -92 110 -163t163 -110q95 -40 199 -40t199 40q92 39 163 110t110 163q40 95 40 199t-40 199zM526 192q-5 -8 -14 -8t-14 8q-138 190 -138 264
q0 63 44.5 107.5t107.5 44.5t107.5 -44.5t44.5 -107.5q0 -74 -138 -264zM512 456zM476 456q0 -15 10.5 -25.5t25.5 -10.5t25.5 10.5t10.5 25.5t-10.5 25.5t-25.5 10.5t-25.5 -10.5t-10.5 -25.5z" />
    <glyph glyph-name="map-o" unicode="&#xe7f0;" 
d="M512 456zM476 456q0 -15 10.5 -25.5t25.5 -10.5t25.5 10.5t10.5 25.5t-10.5 25.5t-25.5 10.5t-25.5 -10.5t-10.5 -25.5zM512 608q-63 0 -107.5 -44.5t-44.5 -106.5q0 -75 138 -265q5 -8 14 -8t14 8q138 190 138 265q0 62 -44.5 106.5t-107.5 44.5zM546 354
q-16 -28 -34 -56q-20 30 -34 56q-46 78 -46 103q0 33 23.5 56t56.5 23t56.5 -23t23.5 -56q0 -25 -46 -103zM984 583q-39 92 -110 163t-163 110q-95 40 -199 40t-199 -40q-92 -39 -163 -110t-110 -163q-40 -95 -40 -199t40 -199q39 -92 110 -163t163 -110q95 -40 199 -40
t199 40q92 39 163 110t110 163q40 95 40 199t-40 199zM512 -56q-182 0 -311 129t-129 311t129 311t311 129t311 -129t129 -311t-129 -311t-311 -129z" />
    <glyph glyph-name="camera" unicode="&#xe7f1;" 
d="M512 439q-45 0 -76.5 -31.5t-31.5 -76t31.5 -76.5t76.5 -32t76.5 32t31.5 76.5t-31.5 76t-76.5 31.5zM952 657h-555v34q0 30 -21 51t-51 21h-179q-30 0 -51 -21t-21 -51v-34h-2q-30 0 -51 -21t-21 -51v-508q0 -29 21 -50.5t51 -21.5h880q30 0 51 21.5t21 50.5v508
q0 30 -21 51t-51 21zM512 151q-74 0 -127 53t-53 127.5t53 127t127 52.5t127 -52.5t53 -127t-53 -127.5t-127 -53z" />
    <glyph glyph-name="camera-o" unicode="&#xe7f2;" 
d="M952 657h-555v34q0 30 -21 51t-51 21h-179q-30 0 -51 -21t-21 -51v-34h-2q-30 0 -51 -21t-21 -51v-508q0 -29 21 -50.5t51 -21.5h880q30 0 51 21.5t21 50.5v508q0 30 -21 51t-51 21zM146 691h179v-34h-179v34zM952 77h-880v508h880v-508zM512 511q-74 0 -127 -52.5
t-53 -127t53 -127.5t127 -53t127 53t53 127.5t-53 127t-127 52.5zM512 223q-45 0 -76.5 32t-31.5 76.5t31.5 76t76.5 31.5t76.5 -31.5t31.5 -76t-31.5 -76.5t-76.5 -32z" />
    <glyph glyph-name="tag" unicode="&#xe7f3;" 
d="M128 860v-948q0 -25 23 -33.5t40 9.5l294 328q11 12 27 12t27 -12l294 -328q17 -18 40 -9.5t23 33.5v948q0 15 -10.5 25.5t-25.5 10.5h-696q-15 0 -25.5 -10.5t-10.5 -25.5z" />
    <glyph glyph-name="tag-o" unicode="&#xe7f4;" 
d="M833 -112l-294 328q-11 12 -27 12t-27 -12l-294 -328q-17 -18 -40 -9.5t-23 33.5v948q0 15 10.5 25.5t25.5 10.5h696q15 0 25.5 -10.5t10.5 -25.5v-948q0 -25 -23 -33.5t-40 9.5zM539 324l285 -318v818h-624v-818l285 318q11 12 27 12t27 -12z" />
    <glyph glyph-name="zhifubao" unicode="&#xe7f5;" 
d="M330 345q28 0 59.5 -7t44.5 -11.5t53.5 -21.5t43.5 -18q-56 -67 -104 -103.5t-97 -36.5q-26 0 -52.5 5t-53 15t-43.5 30.5t-17 47.5q0 31 27 54.5t63.5 34.5t75.5 11zM960 754v-740q0 -32 -23 -55t-55 -23h-740q-32 0 -55 23t-23 55v740q0 32 23 55t55 23h740
q32 0 55 -23t23 -55zM960 231q-48 11 -296 98q38 66 60 143l2 11q1 2 8 36h-178v45h224v45h-224v90h-90v-90h-224v-45h224v-45h-179v-45h334q-12 -61 -42 -116q-16 5 -51.5 14.5t-96.5 21t-102 11.5q-40 0 -84 -18t-78.5 -56t-34.5 -86q0 -77 51 -118t146 -41q169 0 282 168
q79 -35 200.5 -93.5t148.5 -70.5v141z" />
    <glyph glyph-name="wechat" unicode="&#xe7f6;" 
d="M308.5 587q-15.5 0 -26.5 -11.5t-11 -27t11 -26.5t26.5 -11t26.5 11t11 27t-11 27t-26.5 11zM594 383q-12 0 -20.5 -8.5t-8.5 -20.5t8.5 -21t20.5 -9t21 8.5t9 21.5q0 12 -9 21q-8 8 -21 8zM501 511q16 0 27 11t11 27t-11 27q-12 11 -27 11q-16 0 -27 -11t-11 -27t11 -27
t27 -11zM815 832h-606q-60 0 -102.5 -42.5t-42.5 -103.5v-604q0 -61 42.5 -103.5t102.5 -42.5h606q60 0 102.5 42.5t42.5 103.5v604q0 61 -42.5 103.5t-102.5 42.5zM400 232q-26 0 -95 13l-95 -47l27 81q-108 76 -108 184q0 96 79.5 163.5t191.5 67.5q101 0 179 -54.5
t95 -136.5q-13 1 -26 1q-96 0 -163.5 -62.5t-67.5 -152.5q0 -27 9 -57h-26zM801 136l20 -67l-74 41q-55 -14 -82 -14q-96 0 -163.5 57.5t-67.5 139.5t67.5 139.5t163.5 57.5q93 0 162 -58t69 -139q0 -85 -95 -157zM742.5 383q-12.5 0 -21 -8.5t-8.5 -20.5t8.5 -21t20.5 -9
t21 8.5t9 21.5q0 12 -8.5 20.5t-21 8.5z" />
    <glyph glyph-name="comments" unicode="&#xe7f7;" 
d="M952 832h-880q-30 0 -51 -21t-21 -51v-508q0 -30 21 -51t51 -21h261l128 -128q21 -21 51 -21t51 21l128 128h261q30 0 51 21t21 51v508q0 30 -21 51t-51 21zM222 434q-30 0 -51 21t-21 51t21 51t51 21t51 -21t21 -51t-21 -51t-51 -21zM512 442q-30 0 -51 21t-21 51t21 51
t51 21t51 -21t21 -51t-21 -51t-51 -21zM802 434q-30 0 -51 21t-21 51t21 51t51 21t51 -21t21 -51t-21 -51t-51 -21z" />
    <glyph glyph-name="comments-o" unicode="&#xe7f8;" 
d="M222 506zM150 506q0 -30 21 -51t51 -21t51 21t21 51t-21 51t-51 21t-51 -21t-21 -51zM802 506zM730 506q0 -30 21 -51t51 -21t51 21t21 51t-21 51t-51 21t-51 -21t-21 -51zM512 514zM440 514q0 -30 21 -51t51 -21t51 21t21 51t-21 51t-51 21t-51 -21t-21 -51zM512 31
q-30 0 -51 21l-128 128h-261q-30 0 -51 21t-21 51v508q0 30 21 51t51 21h880q30 0 51 -21t21 -51v-508q0 -30 -21 -51t-51 -21h-261l-128 -128q-21 -21 -51 -21zM72 760v-508h291l149 -149l149 149h291v508h-880z" />
    <glyph glyph-name="coupon" unicode="&#xe7f9;" 
d="M419 -117l-128 128l25 25q29 29 29 70t-29 70t-70 29t-70 -29l-26 -25l-139 140q-11 10 -11 25t11 25l544 544q10 11 25 11t25 -11l109 -108q10 -11 10 -25.5t-10 -25.5q-29 -29 -29 -70t29 -70t70 -29t70 29q11 10 26 10t25 -10l108 -109q11 -10 11 -25t-11 -26
l-544 -544q-10 -10 -25 -10t-25 11zM390 13l54 -54l493 493l-60 60q-49 -32 -110 -26t-104 49q-50 50 -50 121q0 51 27 93l-60 60l-493 -493l66 -66q42 27 93 27q71 0 121 -50q43 -43 49 -103.5t-26 -110.5zM301 353q-15 0 -25.5 10.5t-10.5 25.5t11 26l205 205q11 11 26 11
t25.5 -10.5t10.5 -25.5t-11 -26l-205 -205q-11 -11 -26 -11zM518.5 136q-14.5 0 -25.5 10.5t-11 25.5t11 25l206 206q10 11 25 11t25.5 -10.5t10.5 -25.5t-11 -26l-205 -205q-11 -11 -25.5 -11z" />
    <glyph glyph-name="coupon-o" unicode="&#xe7fa;" 
d="M905 586q-11 10 -25.5 10t-25.5 -10q-29 -29 -70 -29t-70 29t-29 70t29 70q10 11 10 26t-10 25l-109 108q-10 11 -25 11t-25 -11l-544 -544q-11 -10 -11 -25t11 -25l114 -115q10 -10 25 -10t26 10q29 29 70 29t70 -29t29 -70t-29 -70q-10 -10 -10 -25t10 -26l103 -102
q10 -11 25 -11t25 11l544 544q11 10 11 25t-11 26zM327 364q-11 -11 -26 -11t-25.5 10.5t-10.5 25.5t11 26l205 205q11 11 26 11t25.5 -10.5t10.5 -25.5t-11 -26zM749 352l-205 -206q-11 -10 -26 -10t-25.5 10.5t-10.5 25.5t11 25l205 206q11 11 26 11t25.5 -10.5
t10.5 -25.5t-11 -26z" />
    <glyph glyph-name="customer-service-o" unicode="&#xe7fb;" 
d="M860 552h-100v31q0 103 -72.5 175.5t-175.5 72.5t-175.5 -72.5t-72.5 -175.5v-31h-99q-15 0 -25.5 -10.5t-10.5 -25.5v-255q0 -15 10.5 -25.5t25.5 -10.5h135q15 0 25.5 10.5t10.5 25.5v320q0 73 51.5 125.5t124 52.5t124.5 -51.5t52 -124.5v-378q0 -77 -53.5 -136.5
t-122.5 -59.5h-71q-15 0 -25.5 -10.5t-10.5 -25.5t10.5 -25.5t25.5 -10.5h73q51 1 96 23q44 22 79 61q71 81 71 184v20h100q15 0 25.5 10.5t10.5 25.5v255q0 15 -10.5 25.5t-25.5 10.5zM264 297h-63v183h63v-183zM824 297h-64v183h64v-183z" />
    <glyph glyph-name="customer-service" unicode="&#xe7fc;" 
d="M860 552h-100v31q0 103 -72.5 175.5t-175.5 72.5t-175.5 -72.5t-72.5 -175.5v-31h-99q-15 0 -25.5 -10.5t-10.5 -25.5v-255q0 -15 10.5 -25.5t25.5 -10.5h135q15 0 25.5 10.5t10.5 25.5v320q0 73 51.5 125.5t124 52.5t124.5 -51.5t52 -124.5v-378q0 -77 -53.5 -136.5
t-122.5 -59.5h-71q-15 0 -25.5 -10.5t-10.5 -25.5t10.5 -25.5t25.5 -10.5h73q51 1 96 23q44 22 79 61q71 81 71 184v20h100q15 0 25.5 10.5t10.5 25.5v255q0 15 -10.5 25.5t-25.5 10.5z" />
    <glyph glyph-name="VIP" unicode="&#xe7fd;" 
d="M669 555l-122 256q-10 21 -33 21t-32 -21l-124 -259q-7 -15 -23 -19t-30 5l-184 134q-18 13 -37.5 3t-19.5 -32v-671q0 -15 10.5 -25.5t25.5 -10.5h824q15 0 25.5 10.5t10.5 25.5v671q0 22 -19.5 32t-37.5 -3l-181 -131q-13 -10 -29.5 -5.5t-23.5 19.5zM512 118
q-31 0 -53 34t-22 82t22 82t53 34t53 -34t22 -82t-22 -82t-53 -34z" />
    <glyph glyph-name="VIP-o" unicode="&#xe7fe;" 
d="M924 -64h-824q-15 0 -25.5 10.5t-10.5 25.5v671q0 22 19.5 32t37.5 -3l219 -159l142 299q9 20 32 20t33 -20l140 -296l216 156q18 13 37.5 3t19.5 -32v-671q0 -15 -10.5 -25.5t-25.5 -10.5zM136 8h752v564l-229 -165l-145 305l-146 -308l-232 168v-564zM437 234
q0 -48 22 -82t53 -34t53 34t22 82t-22 82t-53 34t-53 -34t-22 -82z" />
    <glyph glyph-name="opinion" unicode="&#xe7ff;" 
d="M132 433h-72q-15 0 -25.5 -10.5t-10.5 -25.5t10.5 -25.5t25.5 -10.5h72q15 0 25.5 10.5t10.5 25.5t-10.5 25.5t-25.5 10.5zM512 669q-117 0 -200.5 -83.5t-83.5 -200.5q0 -118 84 -201q25 -26 56 -44v-112q0 -60 42.5 -102t102 -42t101.5 42t42 102v112q32 19 57 44
q83 83 83 201t-83 201t-201 83zM512 740q15 0 25.5 10.5t10.5 25.5v72q0 15 -10.5 25.5t-25.5 10.5t-25.5 -10.5t-10.5 -25.5v-72q0 -15 10.5 -25.5t25.5 -10.5zM269.5 639.5q10.5 10.5 10.5 25.5t-10 25l-51 51q-11 11 -26 11t-25.5 -10.5t-10.5 -25.5t11 -26l51 -50
q10 -11 25 -11t25.5 10.5zM856.5 741.5q-10.5 10.5 -25.5 10.5t-25 -11l-51 -51q-11 -10 -11 -25t10.5 -25.5t25.5 -10.5t26 10l51 51q10 11 10 26t-10.5 25.5zM964 432h-72q-15 0 -25.5 -10.5t-10.5 -25.5t10.5 -25.5t25.5 -10.5h72q15 0 25.5 10.5t10.5 25.5t-10.5 25.5
t-25.5 10.5z" />
    <glyph glyph-name="opinion-o" unicode="&#xe800;" 
d="M512 669q-117 0 -200.5 -83.5t-83.5 -200.5q0 -118 84 -201q25 -26 56 -44v-112q0 -60 42.5 -102t102 -42t101.5 42t42 102v112q32 19 57 44q83 83 83 201t-83 201t-201 83zM584 28q0 -30 -21 -51t-50.5 -21t-51 21t-21.5 51v82q36 -9 72 -9q37 0 72 9v-82zM512.5 173
q-87.5 0 -150 62t-62.5 150t62.5 150t150 62t149.5 -62t62 -150t-62 -150t-149.5 -62zM512 740q15 0 25.5 10.5t10.5 25.5v72q0 15 -10.5 25.5t-25.5 10.5t-25.5 -10.5t-10.5 -25.5v-72q0 -15 10.5 -25.5t25.5 -10.5zM269.5 639.5q10.5 10.5 10.5 25.5t-10 25l-51 51
q-11 11 -26 11t-25.5 -10.5t-10.5 -25.5t11 -26l51 -50q10 -11 25 -11t25.5 10.5zM132 433h-72q-15 0 -25.5 -10.5t-10.5 -25.5t10.5 -25.5t25.5 -10.5h72q15 0 25.5 10.5t10.5 25.5t-10.5 25.5t-25.5 10.5zM856.5 741.5q-10.5 10.5 -25.5 10.5t-25 -11l-51 -51
q-11 -10 -11 -25t10.5 -25.5t25.5 -10.5t26 10l51 51q10 11 10 26t-10.5 25.5zM964 432h-72q-15 0 -25.5 -10.5t-10.5 -25.5t10.5 -25.5t25.5 -10.5h72q15 0 25.5 10.5t10.5 25.5t-10.5 25.5t-25.5 10.5z" />
    <glyph glyph-name="interacticve-o" unicode="&#xe801;" 
d="M388 343zM338 343q0 -21 14.5 -35.5t35.5 -14.5t36 14.5t15 35.5t-15 36t-36 15t-35.5 -15t-14.5 -36zM794 343zM744 343q0 -21 14.5 -35.5t35.5 -14.5t35.5 14.5t14.5 35.5t-14.5 35.5t-35.5 14.5t-35.5 -14.5t-14.5 -35.5zM591 349zM541 348.5q0 -20.5 14.5 -35.5
t35.5 -15t35.5 15t14.5 35.5t-14.5 35.5t-35.5 15t-35.5 -15t-14.5 -35.5zM591 0q-25 0 -43 18l-87 86h-178q-25 0 -43 18t-18 44v355q0 25 18 43t43 18h616q25 0 43 -18t18 -43v-356q0 -25 -18 -43t-43 -18h-178l-87 -86q-18 -18 -43 -18zM294 176h197l100 -100l100 100
h197v334h-594v-334zM151 362h-15v334h594v-42h72v53q0 25 -18 43t-43 18h-616q-25 0 -43 -18t-18 -43v-355q0 -26 18 -44t43 -18h26v72z" />
    <glyph glyph-name="interacticve" unicode="&#xe802;" 
d="M924 582h-666q-15 0 -25.5 -10.5t-10.5 -25.5v-406q0 -15 10.5 -25.5t25.5 -10.5h203l105 -104q10 -10 25 -10t25 10l105 104h203q15 0 25.5 10.5t10.5 25.5v406q0 15 -10.5 25.5t-25.5 10.5zM388 293q-21 0 -35.5 14.5t-14.5 35.5t14.5 36t35.5 15t36 -15t15 -36
t-15 -35.5t-36 -14.5zM591 298q-21 0 -35.5 15t-14.5 36t14.5 35.5t35.5 14.5t36 -14.5t15 -35.5t-15 -36t-36 -15zM794 293q-21 0 -35.5 14.5t-14.5 35.5t14.5 35.5t35.5 14.5t35.5 -14.5t14.5 -35.5t-14.5 -35.5t-35.5 -14.5zM802 679v28q0 25 -18 43t-43 18h-616
q-25 0 -43 -18t-18 -43v-355q0 -26 18 -44t43 -18q11 0 18 7.5t7 17.5v303q0 15 10.5 25.5t25.5 10.5h591q10 0 17.5 7.5t7.5 17.5z" />
    <glyph glyph-name="upload-o" unicode="&#xe803;" 
d="M888 508h-232q-15 0 -25.5 -10.5t-10.5 -25.5t10.5 -25.5t25.5 -10.5h232v-428h-752v428h232q15 0 25.5 10.5t10.5 25.5t-10.5 25.5t-25.5 10.5h-232q-30 0 -51 -21t-21 -51v-428q0 -30 21 -51t51 -21h752q30 0 51 21t21 51v428q0 30 -21 51t-51 21zM702 657l-190 190
l-190 -190q-10 -10 -10 -25t10.5 -25.5t25.5 -10.5t25 10l103 103v-546q0 -15 10.5 -25.5t25.5 -10.5t25.5 10.5t10.5 25.5v546l103 -103q10 -10 25 -10t25.5 10.5t10.5 25.5t-10 25z" />
    <glyph glyph-name="download-o" unicode="&#xe804;" 
d="M888 508h-232q-15 0 -25.5 -10.5t-10.5 -25.5t10.5 -25.5t25.5 -10.5h232v-428h-752v428h232q15 0 25.5 10.5t10.5 25.5t-10.5 25.5t-25.5 10.5h-232q-30 0 -51 -21t-21 -51v-428q0 -30 21 -51t51 -21h752q30 0 51 21t21 51v428q0 30 -21 51t-51 21zM702 272l-190 -189
l-190 189q-10 11 -10 26t10.5 25.5t25.5 10.5t25 -11l103 -102v574q0 15 10.5 25.5t25.5 10.5t25.5 -10.5t10.5 -25.5v-574l103 102q10 11 25 11t25.5 -10.5t10.5 -25.5t-10 -26z" />
    <glyph glyph-name="delete-person" unicode="&#xe805;" 
d="M887.5 459.5q-72.5 72.5 -175.5 72.5t-175.5 -72.5t-72.5 -175.5t72.5 -175.5t175.5 -72.5t175.5 72.5t72.5 175.5t-72.5 175.5zM792 248h-160q-15 0 -25.5 10.5t-10.5 25.5t10.5 25.5t25.5 10.5h160q15 0 25.5 -10.5t10.5 -25.5t-10.5 -25.5t-25.5 -10.5zM837 -11
q-60 -25 -125 -25t-125 25q-57 24 -101 69q-44 44 -69 102q-25 59 -25 124v2q-110 -22 -192 -79q-63 -44 -98 -102q-38 -62 -38 -131v-36h896v36q0 45 -17 89q-1 -2 -5 -5q-44 -44 -101 -69zM587 579q37 15 77 21v14q0 85 -40 147q-20 31 -47 49q-31 20 -65 20t-65 -20
q-27 -18 -47 -49q-40 -62 -40 -147t40 -147q13 -20 29 -34q22 43 57 77q44 44 101 69z" />
    <glyph glyph-name="delete-person-o" unicode="&#xe806;" 
d="M712 36q-103 0 -175.5 72.5t-72.5 175.5t72.5 175.5t175.5 72.5t175.5 -72.5t72.5 -175.5t-72.5 -175.5t-175.5 -72.5zM712 460q-73 0 -124.5 -51.5t-51.5 -124.5t51.5 -124.5t124.5 -51.5t124.5 51.5t51.5 124.5t-51.5 124.5t-124.5 51.5zM792 248h-160
q-15 0 -25.5 10.5t-10.5 25.5t10.5 25.5t25.5 10.5h160q15 0 25.5 -10.5t10.5 -25.5t-10.5 -25.5t-25.5 -10.5zM883 14q0 -2 1 -4h-7q-19 -12 -40 -21q-60 -25 -125 -25t-125 25q-21 9 -40 21h-407q17 79 101 138q68 47 159 66q-8 35 -8 70v2q-110 -22 -192 -79
q-63 -44 -99 -102q-37 -62 -37 -131v-36h896v36q0 45 -17 89q-1 -2 -5 -5q-25 -25 -55 -44zM432 614q0 61 25 102.5t55 41.5t55 -41.5t25 -102.5q0 -18 -2 -34q35 15 74 20v14q0 85 -40 147q-20 31 -47 49q-31 20 -65 20t-65 -20q-27 -18 -47 -49q-40 -62 -40 -147t40 -147
q13 -20 29 -34q17 32 41 60q-38 44 -38 121zM587 -11q60 -25 125 -25t125 25q21 9 40 21h-330q19 -12 40 -21z" />
    <glyph glyph-name="add-person-o" unicode="&#xe807;" 
d="M464 269.5q0 -115.5 81.5 -197t197 -81.5t197 81.5t81.5 197t-81.5 197t-197 81.5t-197 -81.5t-81.5 -197zM742.5 476q85.5 0 146 -60.5t60.5 -146t-60.5 -146t-146 -60.5t-146 60.5t-60.5 146t60.5 146t146 60.5zM651 234h55v-56q0 -15 10.5 -25.5t25.5 -10.5t25.5 10.5
t10.5 25.5v56h56q15 0 25.5 10.5t10.5 25.5t-10.5 25.5t-25.5 10.5h-56v55q0 15 -10.5 25.5t-25.5 10.5t-25.5 -10.5t-10.5 -25.5v-55h-55q-15 0 -25.5 -10.5t-10.5 -25.5t10.5 -25.5t25.5 -10.5zM1004 8q-27 -28 -60 -49q-8 -5 -12 -8q-21 -12 -45 -23q-69 -29 -144.5 -29
t-144.5 29q-24 10 -45 23h-471q18 97 120 167q75 54 178 76q-8 36 -8 72q-121 -25 -212 -88q-71 -50 -111 -116q-42 -70 -42 -147v-36h1014v36q0 48 -17 93zM417 448q18 32 42 61q-5 6 -9 12q-33 51 -33 125.5t33 126.5q29 44 64 44t63 -44q33 -51 33 -126q0 -16 -1 -32
q35 14 73 21v11q0 96 -44 165q-23 35 -53 55q-33 22 -71 22t-71 -22q-31 -20 -53 -55q-45 -69 -45 -165t45 -165q12 -19 27 -34z" />
    <glyph glyph-name="add-person" unicode="&#xe808;" 
d="M887.5 459.5q-72.5 72.5 -175.5 72.5t-175.5 -72.5t-72.5 -175.5t72.5 -175.5t175.5 -72.5t175.5 72.5t72.5 175.5t-72.5 175.5zM792 248h-44v-44q0 -15 -10.5 -25.5t-25.5 -10.5t-25.5 10.5t-10.5 25.5v44h-44q-15 0 -25.5 10.5t-10.5 25.5t10.5 25.5t25.5 10.5h44v44
q0 15 10.5 25.5t25.5 10.5t25.5 -10.5t10.5 -25.5v-44h44q15 0 25.5 -10.5t10.5 -25.5t-10.5 -25.5t-25.5 -10.5zM837 -11q-60 -25 -125 -25t-125 25q-57 24 -101 69q-44 44 -69 102q-25 59 -25 124v2q-110 -22 -192 -79q-63 -44 -98 -102q-38 -62 -38 -131v-36h896v36
q0 45 -17 89q-1 -2 -5 -5q-44 -44 -101 -69zM587 579q37 15 77 21v14q0 85 -40 147q-20 31 -47 49q-31 20 -65 20t-65 -20q-27 -18 -47 -49q-40 -62 -40 -147t40 -147q13 -20 29 -34q22 43 57 77q44 44 101 69z" />
    <glyph glyph-name="switch-OFF-b" unicode="&#xe809;" 
d="M260 528q-15 0 -25.5 -10.5t-10.5 -25.5v-216q0 -15 10.5 -25.5t25.5 -10.5t25.5 10.5t10.5 25.5v216q0 15 -10.5 25.5t-25.5 10.5zM988 644h-952q-15 0 -25.5 -10.5t-10.5 -25.5v-448q0 -15 10.5 -25.5t25.5 -10.5h952q15 0 25.5 10.5t10.5 25.5v448q0 15 -10.5 25.5
t-25.5 10.5zM477 203q0 -15 -10.5 -25.5t-25.5 -10.5h-362q-15 0 -25.5 10.5t-10.5 25.5v362q0 15 10.5 25.5t25.5 10.5h362q15 0 25.5 -10.5t10.5 -25.5v-362z" />
    <glyph glyph-name="switch-ON-b" unicode="&#xe80a;" 
d="M764 528q-15 0 -25.5 -10.5t-10.5 -25.5v-216q0 -15 10.5 -25.5t25.5 -10.5t25.5 10.5t10.5 25.5v216q0 15 -10.5 25.5t-25.5 10.5zM988 644h-952q-15 0 -25.5 -10.5t-10.5 -25.5v-448q0 -15 10.5 -25.5t25.5 -10.5h952q15 0 25.5 10.5t10.5 25.5v448q0 15 -10.5 25.5
t-25.5 10.5zM981 203q0 -15 -10.5 -25.5t-25.5 -10.5h-362q-15 0 -25.5 10.5t-10.5 25.5v362q0 15 10.5 25.5t25.5 10.5h362q15 0 25.5 -10.5t10.5 -25.5v-362z" />
    <glyph glyph-name="switch-ON" unicode="&#xe80b;" 
d="M764 644h-504q-108 0 -184 -76t-76 -184t76 -184t184 -76h504q108 0 184 76t76 184t-76 184t-184 76zM764 160q-93 0 -158.5 65.5t-65.5 158.5t65.5 158.5t158.5 65.5t158.5 -65.5t65.5 -158.5t-65.5 -158.5t-158.5 -65.5z" />
    <glyph glyph-name="switch-OFF" unicode="&#xe80c;" 
d="M764 644h-504q-108 0 -184 -76t-76 -184t76 -184t184 -76h504q108 0 184 76t76 184t-76 184t-184 76zM260 160q-93 0 -158.5 65.5t-65.5 158.5t65.5 158.5t158.5 65.5t158.5 -65.5t65.5 -158.5t-65.5 -158.5t-158.5 -65.5z" />
    <glyph glyph-name="switch-OFF-c" unicode="&#xe80d;" 
d="M952 456h-480q-23 67 -81 109.5t-131 42.5q-74 0 -133 -44t-81 -113q-20 -8 -33 -26t-13 -41t13 -41t33 -26q22 -69 81 -113t133 -44q73 0 131 42.5t81 109.5h480q30 0 51 21t21 51t-21 51t-51 21zM412 384q0 -38 -18 -72q-10 -19 -27 -36q-44 -44 -107 -44t-108 44
q-15 16 -26 36q-18 34 -18 72t18 72q10 19 26 36q45 44 108 44t108 -44q15 -16 26 -36q18 -34 18 -72z" />
    <glyph glyph-name="switch-ON-c" unicode="&#xe80e;" 
d="M978 451q-22 69 -81 113t-133 44q-73 0 -131 -42.5t-81 -109.5h-480q-30 0 -51 -21t-21 -51t21 -51t51 -21h480q23 -67 81 -109.5t131 -42.5q74 0 133 44t81 113q20 8 33 26t13 41t-13 41t-33 26zM916 384q0 -38 -18 -72q-10 -19 -27 -36q-44 -44 -107 -44t-108 44
q-15 16 -26 36q-18 34 -18 72t18 72q10 19 26 36q45 44 108 44t108 -44q15 -16 26 -36q18 -34 18 -72z" />
    <glyph glyph-name="international-plane" unicode="&#xe80f;" 
d="M984 583q-39 92 -110 163t-163 110q-95 40 -199 40q-15 0 -25.5 -10.5t-10.5 -25.5t10.5 -25.5t25.5 -10.5q182 0 311 -129t129 -311q0 -15 10.5 -25.5t25.5 -10.5t25.5 10.5t10.5 25.5q0 104 -40 199zM613 601l-111 -111l-290 74q-17 4 -30 -9l-42 -41
q-10 -11 -8.5 -25.5t13.5 -22.5l201 -142l-112 -99l-111 21l-50 -50q-11 -11 -8.5 -26.5t16.5 -22.5l126 -67l68 -127q7 -14 22.5 -16.5t26.5 8.5l50 50l-20 112l98 111l143 -202q9 -12 23.5 -13.5t24.5 8.5l42 42q12 13 8 30l-75 291l112 111q17 17 24.5 48.5t5.5 57t-9 33
t-33 9t-57 -6.5t-48 -25z" />
    <glyph glyph-name="international-plane-" unicode="&#xe810;" 
d="M988 348q-15 0 -25.5 10.5t-10.5 25.5q0 182 -129 311t-311 129q-15 0 -25.5 10.5t-10.5 25.5t10.5 25.5t25.5 10.5q104 0 199 -40q92 -39 163 -110t110 -163q40 -95 40 -199q0 -15 -10.5 -25.5t-25.5 -10.5zM302 -100q-5 0 -10 1q-33 5 -49 35l-63 117l-116 62
q-30 16 -35 49.5t19 57.5l50 50q13 13 32 10l94 -18l64 57l-164 116q-26 17 -28.5 48.5t19.5 53.5l42 42q27 27 64 17l270 -68l96 97q34 34 100 40q24 2 46 -1q29 -3 43 -17q25 -25 19 -89q-6 -66 -40 -101l-97 -96l69 -272q10 -37 -17 -64l-42 -41q-22 -22 -53 -20
q-31 3 -49 29l-117 165l-57 -64l18 -94q3 -19 -10 -32l-51 -50q-19 -20 -47 -20zM103 175l121 -64q10 -5 15 -15l64 -121l32 32l-17 93q-3 17 8 30l99 111q12 13 29 12t28 -15l139 -197l36 35l-74 289q-5 20 10 34l111 111q14 14 19 49q2 19 0 36q-17 2 -37 -1
q-34 -4 -48 -18l-111 -111q-14 -15 -34 -10l-287 73l-36 -36l196 -138q15 -10 15.5 -27.5t-11.5 -28.5l-112 -99q-13 -12 -30 -9l-92 17zM730 485zM731 594zM721 604z" />
    <glyph glyph-name="security" unicode="&#xe811;" 
d="M860 702q-128 0 -239 48q-55 23 -86 48q-10 8 -23 8t-23 -8q-31 -25 -86 -48q-111 -48 -239 -48q-15 0 -25.5 -10.5t-10.5 -25.5q0 -168 42 -314q37 -126 102 -225q56 -86 123 -138q65 -50 117 -50t117 50q67 51 123 137q65 99 102 225q42 146 42 315q0 15 -10.5 25.5
t-25.5 10.5zM628 368h-80v-164q0 -15 -10.5 -25.5t-25.5 -10.5t-25.5 10.5t-10.5 25.5v164h-80q-15 0 -25.5 10.5t-10.5 25.5t10.5 25.5t25.5 10.5h80v124q0 15 10.5 25.5t25.5 10.5t25.5 -10.5t10.5 -25.5v-124h80q15 0 25.5 -10.5t10.5 -25.5t-10.5 -25.5t-25.5 -10.5z
" />
    <glyph glyph-name="security-o" unicode="&#xe812;" 
d="M860 702q-128 0 -239 48q-55 23 -86 48q-10 8 -23 8t-23 -8q-31 -25 -86 -48q-111 -48 -239 -48q-15 0 -25.5 -10.5t-10.5 -25.5q0 -168 42 -314q37 -126 102 -225q56 -86 123 -138q65 -50 117 -50t117 50q67 51 123 137q65 99 102 225q42 146 42 315q0 15 -10.5 25.5
t-25.5 10.5zM692 166q-49 -76 -107 -120q-45 -35 -73 -35q-27 0 -73 35q-58 44 -107 120q-124 190 -131 465q179 9 311 95q133 -86 312 -95q-8 -277 -132 -465zM476 564v-124h-80q-15 0 -25.5 -10.5t-10.5 -25.5t10.5 -25.5t25.5 -10.5h80v-164q0 -15 10.5 -25.5t25.5 -10.5
t25.5 10.5t10.5 25.5v164h80q15 0 25.5 10.5t10.5 25.5t-10.5 25.5t-25.5 10.5h-80v124q0 15 -10.5 25.5t-25.5 10.5t-25.5 -10.5t-10.5 -25.5z" />
    <glyph glyph-name="filter-o" unicode="&#xe813;" 
d="M609 -64q-15 0 -25.5 10.5t-10.5 25.5v507l176 281h-473l172 -282v-281q0 -15 -10.5 -25.5t-25 -10.5t-25.5 10.5t-11 25.5v261l-162 264q-22 36 -1.5 73t63.5 37h473q42 0 62.5 -37t-1.5 -73l-165 -264v-486q0 -15 -10.5 -25.5t-25.5 -10.5zM749 760z" />
    <glyph glyph-name="rank-o" unicode="&#xe814;" 
d="M681 -64q-7 0 -13 2q-23 9 -23 34v824q0 15 10.5 25.5t25.5 10.5t25.5 -10.5t10.5 -25.5v-733l101 107q10 11 25 11.5t26 -10t11.5 -25.5t-10.5 -26l-163 -173q-10 -11 -26 -11zM343 -64q-15 0 -25.5 10.5t-10.5 25.5v733l-101 -107q-10 -11 -25 -11.5t-26 10t-11.5 25.5
t10.5 26l163 173q16 17 39 8.5t23 -33.5v-824q0 -15 -10.5 -25.5t-25.5 -10.5z" />
    <glyph glyph-name="switches-b-o" unicode="&#xe815;" 
d="M692 422h-360q-15 0 -25.5 10.5t-10.5 25.5t10.5 25.5t25.5 10.5h269l-9 9q-11 10 -11.5 25t9.5 26t25 11.5t26 -10.5l76 -71q17 -17 8 -39.5t-33 -22.5zM408 203q-15 0 -25 10l-76 71q-17 17 -8.5 39.5t33.5 22.5h360q15 0 25.5 -10.5t10.5 -25.5t-10.5 -25.5
t-25.5 -10.5h-269l9 -9q11 -10 11.5 -25t-9.5 -26q-11 -11 -26 -11zM921 412q-13 0 -23 8.5t-12 21.5q-22 138 -127 227.5t-244 89.5q-76 0 -144.5 -28.5t-121.5 -81.5q-11 -11 -26 -11t-25.5 11t-10.5 25.5t11 25.5q62 62 142 96q84 35 174 35q83 0 159 -29q74 -28 134 -79
q45 -39 79 -89q1 14 11 23.5t25 9.5q14 0 25 -10.5t11 -25.5l-1 -183q0 -14 -9.5 -24.5t-23.5 -11.5h-3zM510 -63q-83 0 -159 29q-74 28 -134 79q-45 39 -79 89q-1 -14 -11 -23.5t-25 -9.5q-14 0 -25 10.5t-11 25.5l1 183q0 14 9.5 24.5t23.5 11.5t25 -7.5t13 -22.5
q22 -138 127 -227.5t245 -89.5q75 0 144 29t123 83q10 10 25 10t25.5 -10.5t11 -25t-10.5 -25.5q-62 -63 -143 -97q-83 -36 -175 -36z" />
    <glyph glyph-name="more" unicode="&#xe816;" 
d="M512 896q-139 0 -257 -68.5t-186.5 -186.5t-68.5 -257t68.5 -257t186.5 -186.5t257 -68.5t257 68.5t186.5 186.5t68.5 257t-68.5 257t-186.5 186.5t-257 68.5zM256 312q-30 0 -51 21t-21 51t21 51t51 21t51 -21t21 -51t-21 -51t-51 -21zM512 312q-30 0 -51 21t-21 51
t21 51t51 21t51 -21t21 -51t-21 -51t-51 -21zM768 312q-30 0 -51 21t-21 51t21 51t51 21t51 -21t21 -51t-21 -51t-51 -21z" />
    <glyph glyph-name="more-o" unicode="&#xe817;" 
d="M256 384zM184 384q0 -30 21 -51t51 -21t51 21t21 51t-21 51t-51 21t-51 -21t-21 -51zM512 384zM440 384q0 -30 21 -51t51 -21t51 21t21 51t-21 51t-51 21t-51 -21t-21 -51zM768 384zM696 384q0 -30 21 -51t51 -21t51 21t21 51t-21 51t-51 21t-51 -21t-21 -51zM512 824
q90 0 171 -34q79 -34 140 -95t94 -140q35 -81 35 -171t-34 -171q-34 -79 -95 -140t-140 -94q-81 -35 -171 -35t-171 34q-79 34 -140 95t-94 140q-35 81 -35 171t34 171q34 79 95 140t140 94q81 35 171 35zM512 896q-139 0 -257 -68.5t-186.5 -186.5t-68.5 -257t68.5 -257
t186.5 -186.5t257 -68.5t257 68.5t186.5 186.5t68.5 257t-68.5 257t-186.5 186.5t-257 68.5z" />
    <glyph glyph-name="warning-b-o" unicode="&#xe818;" 
d="M512 572q-15 0 -25.5 -10.5t-10.5 -25.5v-160q0 -15 10.5 -25.5t25.5 -10.5t25.5 10.5t10.5 25.5v160q0 15 -10.5 25.5t-25.5 10.5zM512 232zM476 232q0 -15 10.5 -25.5t25.5 -10.5t25.5 10.5t10.5 25.5t-10.5 25.5t-25.5 10.5t-25.5 -10.5t-10.5 -25.5zM984 583
q-39 92 -110 163t-163 110q-95 40 -199 40t-199 -40q-92 -39 -163 -110t-110 -163q-40 -95 -40 -199t40 -199q39 -92 110 -163t163 -110q95 -40 199 -40t199 40q92 39 163 110t110 163q40 95 40 199t-40 199zM512 -56q-182 0 -311 129t-129 311t129 311t311 129t311 -129
t129 -311t-129 -311t-311 -129z" />
    <glyph glyph-name="warning-b" unicode="&#xe819;" 
d="M984 583q-39 92 -110 163t-163 110q-95 40 -199 40t-199 -40q-92 -39 -163 -110t-110 -163q-40 -95 -40 -199t40 -199q39 -92 110 -163t163 -110q95 -40 199 -40t199 40q92 39 163 110t110 163q40 95 40 199t-40 199zM512 196q-15 0 -25.5 10.5t-10.5 25.5t10.5 25.5
t25.5 10.5t25.5 -10.5t10.5 -25.5t-10.5 -25.5t-25.5 -10.5zM548 376q0 -15 -10.5 -25.5t-25.5 -10.5t-25.5 10.5t-10.5 25.5v160q0 15 10.5 25.5t25.5 10.5t25.5 -10.5t10.5 -25.5v-160z" />
    <glyph glyph-name="warning-o" unicode="&#xe81a;" 
d="M960 -36h-896q-20 0 -30.5 17.5t-1.5 35.5l448 832q11 19 32 19t32 -19l448 -832q9 -18 -1.5 -35.5t-30.5 -17.5zM124 36h776l-388 720zM512 512q-15 0 -25.5 -10.5t-10.5 -25.5v-160q0 -15 10.5 -25.5t25.5 -10.5t25.5 10.5t10.5 25.5v160q0 15 -10.5 25.5t-25.5 10.5z
M512 172zM476 172q0 -15 10.5 -25.5t25.5 -10.5t25.5 10.5t10.5 25.5t-10.5 25.5t-25.5 10.5t-25.5 -10.5t-10.5 -25.5z" />
    <glyph glyph-name="warning" unicode="&#xe81b;" 
d="M992 17l-448 832q-11 19 -32 19t-32 -19l-448 -832q-9 -18 1.5 -35.5t30.5 -17.5h896q20 0 30.5 17.5t1.5 35.5zM512 136q-15 0 -25.5 10.5t-10.5 25.5t10.5 25.5t25.5 10.5t25.5 -10.5t10.5 -25.5t-10.5 -25.5t-25.5 -10.5zM548 316q0 -15 -10.5 -25.5t-25.5 -10.5
t-25.5 10.5t-10.5 25.5v160q0 15 10.5 25.5t25.5 10.5t25.5 -10.5t10.5 -25.5v-160z" />
    <glyph glyph-name="bill-o" unicode="&#xe81c;" 
d="M824 804h-160v44q0 20 -14 34t-34 14h-208q-20 0 -34 -14t-14 -34v-44h-160q-30 0 -51 -21t-21 -51v-724q0 -30 21 -51t51 -21h624q30 0 51 21t21 51v724q0 30 -21 51t-51 21zM432 824h160v-20h-160v20zM824 8h-624v724h160v-42q0 -15 10.5 -25.5t25.5 -10.5t25.5 10.5
t10.5 25.5v42h160v-42q0 -15 10.5 -25.5t25.5 -10.5t25.5 10.5t10.5 25.5v42h160v-724zM654 390q15 0 25.5 10.5t10.5 25.5t-10.5 25.5t-25.5 10.5h-58l21 60q4 14 -2.5 27.5t-20.5 18.5t-27.5 -1.5t-17.5 -20.5l-29 -84h-15l-29 84q-5 14 -18.5 20.5t-27.5 1.5t-20.5 -18.5
t-1.5 -27.5l20 -60h-58q-15 0 -25.5 -10.5t-10.5 -25.5t10.5 -25.5t25.5 -10.5h106v-62h-106q-15 0 -25.5 -10.5t-10.5 -25.5t10.5 -25.5t25.5 -10.5h106v-82q0 -15 10.5 -25.5t25.5 -10.5t25.5 10.5t10.5 25.5v82h106q15 0 25.5 10.5t10.5 25.5t-10.5 25.5t-25.5 10.5h-106
v62h106v0z" />
    <glyph glyph-name="bill" unicode="&#xe81d;" 
d="M824 804h-160v44q0 20 -14 34t-34 14h-208q-20 0 -34 -14t-14 -34v-44h-160q-30 0 -51 -21t-21 -51v-724q0 -30 21 -51t51 -21h624q30 0 51 21t21 51v724q0 30 -21 51t-51 21zM654 328q15 0 25.5 -10.5t10.5 -25.5t-10.5 -25.5t-25.5 -10.5h-106v-82q0 -15 -10.5 -25.5
t-25.5 -10.5t-25.5 10.5t-10.5 25.5v82h-106q-15 0 -25.5 10.5t-10.5 25.5t10.5 25.5t25.5 10.5h106v62h-106q-15 0 -25.5 10.5t-10.5 25.5t10.5 25.5t25.5 10.5h58l-21 60q-4 14 2.5 27.5t20.5 18.5t27.5 -1.5t17.5 -20.5l30 -84h14l29 84q5 14 18.5 20.5t27.5 1.5
t20.5 -18.5t1.5 -27.5l-20 -60h58q15 0 25.5 -10.5t10.5 -25.5t-10.5 -25.5t-25.5 -10.5h-106v-62h106z" />
    <glyph glyph-name="payment-o" unicode="&#xe81e;" 
d="M654 390q15 0 25.5 10.5t10.5 25.5t-10.5 25.5t-25.5 10.5h-58l21 60q4 14 -2.5 27.5t-20.5 18.5t-27.5 -1.5t-17.5 -20.5l-29 -84h-15l-29 84q-5 14 -18.5 20.5t-27.5 1.5t-20.5 -18.5t-1.5 -27.5l20 -60h-58q-15 0 -25.5 -10.5t-10.5 -25.5t10.5 -25.5t25.5 -10.5h106
v-62h-106q-15 0 -25.5 -10.5t-10.5 -25.5t10.5 -25.5t25.5 -10.5h106v-82q0 -15 10.5 -25.5t25.5 -10.5t25.5 10.5t10.5 25.5v82h106q15 0 25.5 10.5t10.5 25.5t-10.5 25.5t-25.5 10.5h-106v62h106v0zM984 583q-39 92 -110 163t-163 110q-95 40 -199 40t-199 -40
q-92 -39 -163 -110t-110 -163q-40 -95 -40 -199t40 -199q39 -92 110 -163t163 -110q95 -40 199 -40t199 40q92 39 163 110t110 163q40 95 40 199t-40 199zM512 -56q-182 0 -311 129t-129 311t129 311t311 129t311 -129t129 -311t-129 -311t-311 -129z" />
    <glyph glyph-name="payment" unicode="&#xe81f;" 
d="M984 583q-39 92 -110 163t-163 110q-95 40 -199 40t-199 -40q-92 -39 -163 -110t-110 -163q-40 -95 -40 -199t40 -199q39 -92 110 -163t163 -110q95 -40 199 -40t199 40q92 39 163 110t110 163q40 95 40 199t-40 199zM654 328q15 0 25.5 -10.5t10.5 -25.5t-10.5 -25.5
t-25.5 -10.5h-106v-82q0 -15 -10.5 -25.5t-25.5 -10.5t-25.5 10.5t-10.5 25.5v82h-106q-15 0 -25.5 10.5t-10.5 25.5t10.5 25.5t25.5 10.5h106v62h-106q-15 0 -25.5 10.5t-10.5 25.5t10.5 25.5t25.5 10.5h58l-21 60q-4 14 2.5 27.5t20.5 18.5t27.5 -1.5t17.5 -20.5l30 -84
h14l29 84q5 14 18.5 20.5t27.5 1.5t20.5 -18.5t1.5 -27.5l-20 -60h58q15 0 25.5 -10.5t10.5 -25.5t-10.5 -25.5t-25.5 -10.5h-106v-62h106z" />
    <glyph glyph-name="payment-b-o" unicode="&#xe820;" 
d="M984 583q-39 92 -110 163t-163 110q-95 40 -199 40t-199 -40q-92 -39 -163 -110t-110 -163q-40 -95 -40 -199t40 -199q39 -92 110 -163t163 -110q95 -40 199 -40t199 40q92 39 163 110t110 163q40 95 40 199t-40 199zM512 -56q-182 0 -311 129t-129 311t129 311t311 129
t311 -129t129 -311t-129 -311t-311 -129zM722 600h-420q-30 0 -51 -21t-21 -51v-288q0 -30 21 -51t51 -21h420q30 0 51 21t21 51v288q0 30 -21 51t-51 21zM722 240h-420v288h420v-288v0zM396 415h130q15 0 25.5 10.5t10.5 25.5t-10.5 25.5t-25.5 10.5h-130
q-15 0 -25.5 -10.5t-10.5 -25.5t10.5 -25.5t25.5 -10.5zM628 355h-232q-15 0 -25.5 -10.5t-10.5 -25.5t10.5 -25.5t25.5 -10.5h232q15 0 25.5 10.5t10.5 25.5t-10.5 25.5t-25.5 10.5z" />
    <glyph glyph-name="payment-b" unicode="&#xe821;" 
d="M302 528v-288h420v288h-420zM396 487h130q15 0 25.5 -10.5t10.5 -25.5t-10.5 -25.5t-25.5 -10.5h-130q-15 0 -25.5 10.5t-10.5 25.5t10.5 25.5t25.5 10.5zM628 283h-232q-15 0 -25.5 10.5t-10.5 25.5t10.5 25.5t25.5 10.5h232q15 0 25.5 -10.5t10.5 -25.5t-10.5 -25.5
t-25.5 -10.5zM984 583q-39 92 -110 163t-163 110q-95 40 -199 40t-199 -40q-92 -39 -163 -110t-110 -163q-40 -95 -40 -199t40 -199q39 -92 110 -163t163 -110q95 -40 199 -40t199 40q92 39 163 110t110 163q40 95 40 199t-40 199zM794 240q0 -30 -21 -51t-51 -21h-420
q-30 0 -51 21t-21 51v288q0 30 21 51t51 21h420q30 0 51 -21t21 -51v-288z" />
    <glyph glyph-name="bus-o" unicode="&#xe82a;" 
d="M675 591h-326q-45 0 -76.5 -31.5t-31.5 -76.5v-120q0 -30 21 -51t51 -21h398q30 0 51 21t21 51v120q0 45 -31.5 76.5t-76.5 31.5zM313 483q0 15 10.5 25.5t25.5 10.5h127v-156h-163v120zM711 363h-163v156h127q15 0 25.5 -10.5t10.5 -25.5v-120zM312 195zM276 195
q0 -15 10.5 -25.5t25.5 -10.5t25.5 10.5t10.5 25.5t-10.5 25.5t-25.5 10.5t-25.5 -10.5t-10.5 -25.5zM712 195zM676 195q0 -15 10.5 -25.5t25.5 -10.5t25.5 10.5t10.5 25.5t-10.5 25.5t-25.5 10.5t-25.5 -10.5t-10.5 -25.5zM448 622h128q15 0 25.5 10.5t10.5 25.5
t-10.5 25.5t-25.5 10.5h-128q-15 0 -25.5 -10.5t-10.5 -25.5t10.5 -25.5t25.5 -10.5zM924 550q-17 0 -28 -13v83q0 74 -53 127t-127 53h-408q-74 0 -127 -53t-53 -127v-83q-11 13 -28 13q-15 0 -25.5 -10.5t-10.5 -25.5v-50q0 -15 10.5 -25.5t25.5 -10.5q17 0 28 13v-337
q0 -30 21 -51t51 -21h14v-28q0 -15 10.5 -25.5t25.5 -10.5t25.5 10.5t10.5 25.5v28h452v-28q0 -15 10.5 -25.5t25.5 -10.5t25.5 10.5t10.5 25.5v28h14q30 0 51 21t21 51v337q11 -13 28 -13q15 0 25.5 10.5t10.5 25.5v50q0 15 -10.5 25.5t-25.5 10.5zM824 104h-624v516
q0 45 31.5 76.5t76.5 31.5h408q45 0 76.5 -31.5t31.5 -76.5v-516z" />
    </font>
</defs>
</svg>
